<svg xmlns="http://www.w3.org/2000/svg" xmlns:xlink="http://www.w3.org/1999/xlink" viewBox="0 0 800 202" width="100%" height="100%">
	<defs>
	




<svg id="Race-24c-EightShellIcon" xmlns="http://www.w3.org/2000/svg" xml:space="preserve" width="1.147in" height="4.762in" style="shape-rendering:geometricPrecision; text-rendering:geometricPrecision; image-rendering:optimizeQuality; fill-rule:evenodd; clip-rule:evenodd"
viewBox="0 0 1.15202 4.78285"
 xmlns:xlink="http://www.w3.org/1999/xlink">
 <g id="Outline">
  <metadata id="CorelCorpID_0Corel-Layer"/>
  <g id="_125150392">
   <path id="_125151936" class="fil0" d="M0.598609 4.78285c-0.0090394,-0.00200876 -0.0180788,-0.00401751 -0.0271182,-0.00703065 -0.00401751,-0.0200876 -0.00803503,-0.0401751 -0.0120525,-0.0602627 -0.00100438,-0.0311357 -0.00200876,-0.0622715 -0.00301313,-0.0934072 -0.00200876,-0.00602627 -0.00401751,-0.0130569 -0.00703065,-0.0200876 -0.00401751,-0.0592583 -0.00803503,-0.118517 -0.0130569,-0.177775 -0.0100438,-0.0602627 -0.0100438,-0.0753284 -0.0140613,-0.0974247 -0.00703065,-0.0110482 -0.0140613,-0.0231007 -0.0220963,-0.0351532 -0.00200876,-0.00803503 -0.00502189,-0.0160701 -0.00803503,-0.0251095 -0.00100438,-0.0130569 -0.00200876,-0.0261138 -0.00301313,-0.0401751 0.00100438,-0.0110482 0.00200876,-0.0220963 0.00301313,-0.0331445 0.00200876,-0.00502189 0.00401751,-0.0110482 0.00703065,-0.0170744 0.00100438,-0.0200876 0.00200876,-0.0401751 0.00301313,-0.0602627 0.00502189,-0.0110482 0.0110482,-0.0220963 0.0170744,-0.0331445 0.00100438,-0.00502189 0.00200876,-0.0100438 0.00301313,-0.0150657 -0.00502189,-0.0994335 -0.0100438,-0.198867 -0.0160701,-0.299305 -0.00100438,-0.00502189 -0.00200876,-0.0110482 -0.00401751,-0.0170744 -0.00401751,-0.00602627 -0.0090394,-0.0120525 -0.0140613,-0.0180788 -0.00602627,-0.00301313 -0.0130569,-0.00703065 -0.0200876,-0.0110482 -0.0934072,-0.0160701 -0.186814,-0.0331445 -0.281226,-0.0502189 -0.0140613,-0.00100438 -0.029127,-0.00200876 -0.0441926,-0.00301313 -0.0200876,-0.00703065 -0.0200876,-0.00703065 -0.0703065,-0.0150657 -0.00401751,0.00803503 -0.00401751,0.00803503 -0.00401751,0.0281226 0.00502189,0.00803503 0.0100438,0.0170744 0.0160701,0.0261138 -0.00200876,0.0341489 -0.00200876,0.0341489 -0.00502189,0.0431883 -0.00602627,0.00100438 -0.0120525,0.00301313 -0.0190832,0.00502189 -0.00301313,-0.00200876 -0.00602627,-0.00502189 -0.0090394,-0.00803503 0,-0.0110482 0,-0.0220963 -0.00100438,-0.0341489 -0.00401751,-0.00803503 -0.0090394,-0.0160701 -0.0140613,-0.0241051 -0.00502189,-0.00200876 -0.0110482,-0.00401751 -0.0170744,-0.00602627 0,-0.00401751 -0.00100438,-0.00803503 -0.00200876,-0.0130569 0.00502189,-0.0090394 0.0190832,-0.0200876 0.0301313,-0.037162 -0.00100438,-0.0110482 -0.00200876,-0.0220963 -0.00301313,-0.0331445 -0.00502189,-0.00803503 -0.0160701,-0.0160701 -0.0200876,-0.0251095 0.00100438,-0.00502189 0.00200876,-0.0100438 0.00301313,-0.0150657 0.00200876,-0.00401751 0.00502189,-0.00803503 0.00803503,-0.0120525 0,-0.00703065 0.00100438,-0.0140613 0.00200876,-0.0210919 -0.00301313,-0.00502189 -0.00602627,-0.0110482 -0.0100438,-0.0170744 0,-0.00401751 0,-0.00803503 0,-0.0130569 0.00200876,-0.00301313 0.00502189,-0.00703065 0.00803503,-0.0110482 0.00401751,0 0.0090394,0 0.0140613,-0.00100438 0.0100438,0.00703065 0.0100438,0.00703065 0.0150657,0.0150657 0.00200876,0.00703065 0.00401751,0.0150657 0.00602627,0.0231007 0,0.0602627 0,0.0602627 0.00200876,0.0672933 0.0160701,0 0.0331445,0 0.0502189,0.00100438 0.0120525,0.00401751 0.0241051,0.0090394 0.037162,0.0140613 0.0140613,0.00200876 0.0281226,0.00401751 0.0431883,0.00602627 0.157687,0.0401751 0.197863,0.0472058 0.220963,0.0542364 0.045197,0.00602627 0.045197,0.00602627 0.0602627,0.00502189 0.00200876,-0.0190832 0.00502189,-0.0381664 0.00803503,-0.0572496 0.00100438,-0.0281226 0.00200876,-0.0562452 0.00401751,-0.0853722 -0.00401751,-0.0512233 -0.00401751,-0.0512233 -0.00401751,-0.117512 -0.00200876,-0.0170744 -0.00401751,-0.0341489 -0.00602627,-0.0512233 -0.0090394,-0.0190832 -0.0160701,-0.0251095 -0.0241051,-0.0431883 0,-0.0090394 0,-0.0180788 0,-0.0271182 0.00703065,-0.0301313 0.00703065,-0.0301313 0.0200876,-0.133582 -0.00100438,-0.029127 -0.00200876,-0.0582539 -0.00301313,-0.0873809 -0.00401751,-0.0090394 -0.00803503,-0.0180788 -0.0130569,-0.0271182 0,-0.0100438 0,-0.0100438 0.00401751,-0.0220963 0.00200876,-0.00200876 0.00401751,-0.00502189 0.00602627,-0.00803503 0.00100438,-0.0311357 0.00200876,-0.0622715 0.00301313,-0.0934072 -0.00301313,-0.0170744 -0.00301313,-0.0170744 -0.00803503,-0.0281226 -0.00602627,-0.00401751 -0.0130569,-0.0090394 -0.0200876,-0.0140613 -0.037162,-0.00703065 -0.037162,-0.00703065 -0.090394,-0.0100438 -0.00502189,-0.00200876 -0.0110482,-0.00401751 -0.0170744,-0.00703065 -0.0361576,-0.00401751 -0.0733196,-0.00803503 -0.110482,-0.0130569 -0.0863765,-0.0170744 -0.120525,-0.0200876 -0.158692,-0.0301313 -0.00301313,0.00100438 -0.00602627,0.00200876 -0.0090394,0.00401751 0,0.0110482 0,0.0231007 -0.00100438,0.0351532 -0.00803503,0.0100438 -0.00803503,0.0100438 -0.0220963,0.0180788 -0.00502189,0 -0.0100438,-0.00100438 -0.0150657,-0.00200876 -0.00200876,-0.00401751 -0.00401751,-0.00803503 -0.00703065,-0.0120525 0.00200876,-0.00502189 0.00502189,-0.0100438 0.00803503,-0.0160701 0,-0.00602627 0.00100438,-0.0120525 0.00200876,-0.0180788 -0.00100438,-0.00401751 -0.00200876,-0.0090394 -0.00401751,-0.0140613 -0.00602627,-0.00200876 -0.0120525,-0.00401751 -0.0180788,-0.00602627 0,-0.00803503 0,-0.0170744 0,-0.0261138 0.00401751,-0.0220963 0.00803503,-0.0441926 0.0120525,-0.066289 -0.00803503,-0.0170744 -0.0150657,-0.0241051 -0.0200876,-0.0351532 0,-0.00703065 0,-0.00703065 0.00803503,-0.0180788 0.00602627,0 0.0120525,0 0.0180788,-0.00100438 0.00401751,0.00301313 0.00803503,0.00703065 0.0130569,0.0110482 0.00803503,0.0170744 0.0160701,0.0341489 0.0251095,0.0512233 -0.00401751,0.0271182 -0.00401751,0.0271182 -0.00301313,0.037162 0.00803503,0.00100438 0.0150657,-0.00200876 0.0411795,-0.00200876 0.0271182,0.00703065 0.0271182,0.00703065 0.0542364,0.0100438 0.0170744,0.00502189 0.0351532,0.0110482 0.053232,0.0170744 0.0703065,0.0130569 0.0703065,0.0130569 0.170744,0.0361576 0.0140613,0.00401751 0.0281226,0.0090394 0.0431883,0.0140613 0.0090394,0.00100438 0.0180788,0.00200876 0.0271182,0.00301313 0.00401751,-0.00100438 0.00803503,-0.00200876 0.0130569,-0.00301313 0.00401751,-0.00602627 0.00803503,-0.0120525 0.0120525,-0.0180788 0.00100438,-0.0582539 0.00200876,-0.116508 0.00301313,-0.174762 -0.00301313,-0.0582539 -0.0130569,-0.156683 -0.0130569,-0.183801 0.00301313,-0.0170744 0.00602627,-0.0351532 0.0100438,-0.053232 0.00100438,-0.0853722 0.00200876,-0.171749 0.00301313,-0.258125 -0.00100438,-0.0220963 -0.00200876,-0.0441926 -0.00301313,-0.0672933 -0.00200876,-0.00401751 -0.00502189,-0.0090394 -0.00803503,-0.0140613 -0.00502189,-0.00200876 -0.0110482,-0.00502189 -0.0170744,-0.00803503 -0.183801,-0.0261138 -0.183801,-0.0261138 -0.193845,-0.0301313 -0.0301313,-0.00200876 -0.0602627,-0.00401751 -0.090394,-0.00602627 -0.0261138,-0.00502189 -0.053232,-0.0100438 -0.0803503,-0.0150657 0.00301313,0.0110482 0.00703065,0.0220963 0.0110482,0.0331445 0,0.0120525 0,0.0241051 -0.00100438,0.037162 -0.0090394,0.00301313 -0.0090394,0.00301313 -0.029127,0.00301313 -0.00100438,-0.0100438 -0.00200876,-0.0200876 -0.00301313,-0.0301313 -0.00502189,-0.0100438 -0.0100438,-0.0200876 -0.0150657,-0.0311357 -0.00803503,-0.00502189 -0.00803503,-0.00502189 -0.0120525,-0.0120525 -0.00301313,-0.0301313 -0.00301313,-0.0301313 -0.00100438,-0.037162 0.00401751,-0.00200876 0.00803503,-0.00401751 0.0130569,-0.00602627 0,-0.00401751 0,-0.0090394 0.00100438,-0.0140613 -0.00602627,-0.0160701 -0.00602627,-0.0160701 -0.0110482,-0.0210919 -0.00200876,0 -0.00401751,-0.00100438 -0.00703065,-0.00200876 0,-0.00401751 -0.00100438,-0.00803503 -0.00200876,-0.0130569 0.00803503,-0.0160701 0.00803503,-0.0160701 0.0120525,-0.0190832 0,-0.00602627 0.00100438,-0.0120525 0.00200876,-0.0180788 -0.0170744,-0.037162 -0.0170744,-0.037162 -0.0341489,-0.0632758 0,-0.0100438 0,-0.0100438 0.00502189,-0.0180788 0.00502189,0 0.0100438,0 0.0150657,0 0.00401751,0.00301313 0.0090394,0.00602627 0.0140613,0.0100438 0.0110482,0.0200876 0.0220963,0.0401751 0.0331445,0.0612671 0,0.0331445 0,0.0331445 -0.00301313,0.053232 0.00602627,0.0170744 0.00602627,0.0170744 0.0110482,0.0241051 0.0542364,0.00401751 0.0542364,0.00401751 0.0642802,0.00803503 0.0401751,0.00602627 0.0632758,0.0130569 0.0873809,0.0160701 0.00602627,0.00401751 0.00602627,0.00401751 0.0632758,0.0170744 0.0602627,0.0100438 0.0602627,0.0100438 0.117512,0.0231007 0.0150657,0 0.0311357,0 0.0472058,-0.00100438 0.00100438,-0.00301313 0.00200876,-0.00602627 0.00401751,-0.0100438 0.00200876,-0.0321401 0.00401751,-0.0642802 0.00703065,-0.0974247 0,-0.0642802 0,-0.12856 0,-0.193845 -0.00200876,-0.00602627 -0.00401751,-0.0130569 -0.00703065,-0.0200876 0,-0.0150657 0,-0.0311357 0,-0.0472058 0.00401751,-0.0261138 0.00803503,-0.053232 0.0130569,-0.0803503 0.00200876,-0.0301313 0.00401751,-0.0612671 0.00703065,-0.0924028 0.00100438,-0.0572496 0.00200876,-0.114499 0.00301313,-0.171749 -0.00200876,-0.0100438 -0.00401751,-0.0200876 -0.00703065,-0.0311357 -0.00803503,-0.00502189 -0.00803503,-0.00502189 -0.0110482,-0.0120525 -0.00502189,-0.00200876 -0.0100438,-0.00401751 -0.0160701,-0.00602627 -0.110482,-0.0130569 -0.162709,-0.0231007 -0.261138,-0.0361576 -0.00301313,-0.00100438 -0.00602627,-0.00200876 -0.0100438,-0.00401751 -0.0180788,-0.00100438 -0.0361576,-0.00200876 -0.0542364,-0.00301313 -0.0170744,-0.00502189 -0.0351532,-0.0100438 -0.053232,-0.0150657 0,0.00301313 0,0.00602627 0.00100438,0.0100438 0.00401751,0.00803503 0.0090394,0.0160701 0.0140613,0.0241051 0,0.00703065 0,0.0150657 0,0.0231007 -0.00200876,0.00703065 -0.00502189,0.0150657 -0.00803503,0.0231007 -0.00703065,0.00200876 -0.00703065,0.00200876 -0.0261138,0 -0.00100438,-0.00602627 -0.00200876,-0.0130569 -0.00301313,-0.0200876 0.00301313,-0.00602627 0.00301313,-0.00602627 0.00301313,-0.0200876 -0.00100438,-0.00200876 -0.00200876,-0.00401751 -0.00401751,-0.00703065 -0.00602627,-0.00301313 -0.0120525,-0.00602627 -0.0190832,-0.0100438 -0.00100438,-0.00502189 -0.00200876,-0.0100438 -0.00301313,-0.0160701 0.00200876,-0.00401751 0.00401751,-0.00803503 0.00602627,-0.0130569 0,-0.00602627 -0.00100438,-0.0120525 -0.00200876,-0.0190832 -0.00200876,-0.00200876 -0.00401751,-0.00401751 -0.00602627,-0.00703065 -0.00200876,-0.0210919 -0.00803503,-0.0341489 -0.00703065,-0.0462014 0.00100438,-0.00502189 0.00301313,-0.0100438 0.00502189,-0.0150657 -0.00602627,-0.0170744 -0.00602627,-0.0170744 -0.00602627,-0.0301313 0.00100438,-0.00200876 0.00200876,-0.00502189 0.00401751,-0.00803503 0.0180788,-0.00100438 0.0180788,-0.00100438 0.0241051,0.00100438 0.00602627,0.0120525 0.0120525,0.0241051 0.0180788,0.037162 0,0.0120525 0.00100438,0.0241051 0.00200876,0.037162 0.00803503,0 0.0160701,-0.00100438 0.0241051,-0.00200876 0.0180788,0.00200876 0.037162,0.00401751 0.0562452,0.00602627 0.00401751,0.00200876 0.0090394,0.00401751 0.0140613,0.00703065 0.0241051,0.00401751 0.0482102,0.00803503 0.0733196,0.0130569 0.0160701,0.00401751 0.0331445,0.0090394 0.0502189,0.0140613 0.0090394,0.00100438 0.0180788,0.00200876 0.0271182,0.00301313 0.00401751,0.00200876 0.00803503,0.00401751 0.0130569,0.00703065 0.0934072,0.0200876 0.0934072,0.0200876 0.101442,0.0241051 0.0140613,0 0.0281226,0.00100438 0.0421839,0.00200876 0.00703065,-0.00401751 0.00703065,-0.00401751 0.0120525,-0.0110482 0.00301313,-0.0140613 0.00602627,-0.0281226 0.0100438,-0.0431883 0.00602627,-0.090394 0.0100438,-0.207906 0.0130569,-0.227994 0,-0.0170744 0,-0.0351532 -0.00100438,-0.053232 -0.0100438,-0.00401751 -0.0200876,-0.0090394 -0.0301313,-0.0140613 -0.00602627,-0.0100438 -0.00602627,-0.0100438 -0.0090394,-0.0231007 0.00301313,-0.0431883 0.00703065,-0.0572496 0.0130569,-0.113495 0.00401751,-0.0100438 0.00401751,-0.0100438 0.0100438,-0.0472058 0.0100438,-0.0251095 0.0200876,-0.0512233 0.0301313,-0.0773371 0.00200876,-0.0100438 0.00401751,-0.0200876 0.00703065,-0.0301313 0.0200876,-0.241051 0.0200876,-0.241051 0.0271182,-0.29127 0.00200876,-0.0411795 0.00401751,-0.082359 0.00602627,-0.123539 0.00401751,-0.0351532 0.0090394,-0.0713109 0.0140613,-0.107468 0.00401751,-0.0110482 0.00803503,-0.0220963 0.0120525,-0.0331445 0.00401751,-0.00100438 0.00803503,-0.00301313 0.0130569,-0.00502189 0.0110482,0.00100438 0.0220963,0.00301313 0.0331445,0.00502189 0.00200876,0.00602627 0.00502189,0.0130569 0.00803503,0.0200876 0.0100438,0.0873809 0.0140613,0.0974247 0.0160701,0.117512 0.00301313,0 0.00602627,0.00100438 0.0100438,0.00200876 0.00401751,0.0612671 0.00803503,0.074324 0.0120525,0.16974 0.00200876,0.00301313 0.00401751,0.00602627 0.00703065,0.0100438 0.00100438,0.0321401 0.00200876,0.0642802 0.00401751,0.0964203 -0.00200876,0.00100438 -0.00401751,0.00301313 -0.00602627,0.00502189 0.00301313,0.00803503 0.00703065,0.0160701 0.0110482,0.0241051 0,0.00803503 0,0.0160701 0,0.0241051 0.00401751,0.0200876 0.00803503,0.0401751 0.0130569,0.0602627 0,0.0130569 0,0.0261138 0,0.0401751 0.00200876,0.00502189 0.00401751,0.0100438 0.00703065,0.0160701 0.0110482,0.0723152 0.0160701,0.0843678 0.0160701,0.0954159 0.00200876,0.0110482 0.00502189,0.0220963 0.00803503,0.0331445 0.00200876,0.00200876 0.00401751,0.00401751 0.00602627,0.00602627 0,0.0100438 -0.00401751,0.0160701 -0.00502189,0.0261138 0.00401751,0 0.00803503,0 0.0130569,0 0,0.00200876 0,0.00401751 0,0.00703065 -0.00602627,0 -0.00602627,0 -0.00602627,0.00301313 0.00803503,0 0.0170744,0.00100438 0.0261138,0.00200876 0.0170744,-0.00703065 0.0170744,-0.00703065 0.0472058,-0.0140613 0.0140613,-0.0110482 0.0140613,-0.0110482 0.0170744,-0.0180788 0.00803503,0 0.0170744,-0.00100438 0.0261138,-0.00200876 0.0140613,0.00401751 0.0140613,0.00401751 0.0271182,0.00401751 0.0341489,-0.0110482 0.0682977,-0.0220963 0.103451,-0.0341489 0.037162,-0.00602627 0.037162,-0.00602627 0.0873809,-0.0180788 -0.00100438,-0.00200876 -0.00200876,-0.00401751 -0.00301313,-0.00703065 -0.00502189,-0.00301313 -0.0100438,-0.00602627 -0.0150657,-0.0090394 0,-0.00602627 0,-0.0120525 0.00100438,-0.0190832 0.00200876,-0.00200876 0.00401751,-0.00401751 0.00602627,-0.00602627 0.0311357,-0.00703065 0.0311357,-0.00703065 0.0381664,-0.0120525 0,-0.00602627 0,-0.0130569 0.00100438,-0.0200876 -0.00703065,-0.0130569 -0.0140613,-0.0261138 -0.0220963,-0.0391708 -0.00401751,-0.00200876 -0.00803503,-0.00502189 -0.0130569,-0.00803503 -0.00401751,-0.00803503 -0.00401751,-0.00803503 -0.00401751,-0.0241051 0.00401751,-0.00200876 0.0090394,-0.00502189 0.0140613,-0.00803503 0.00502189,0 0.0100438,0.00100438 0.0150657,0.00200876 0.0110482,0.0150657 0.0231007,0.0301313 0.0351532,0.045197 0.00401751,0.0100438 0.00803503,0.0210919 0.0120525,0.0321401 0,0.0090394 -0.00100438,0.0180788 -0.00200876,0.0281226 -0.00301313,0.00502189 -0.00602627,0.0100438 -0.0090394,0.0160701 -0.00502189,0.00502189 -0.0110482,0.0100438 -0.0170744,0.0150657 0.00301313,0.0100438 0.00703065,0.0200876 0.0110482,0.0311357 0,0.0200876 -0.00100438,0.0401751 -0.00200876,0.0612671 0.0090394,0.0120525 0.0090394,0.0120525 0.0120525,0.0220963 0,0.0200876 0,0.0200876 -0.00301313,0.0301313 -0.00803503,0.00602627 -0.0160701,0.0120525 -0.0251095,0.0180788 -0.0170744,0 -0.0170744,0 -0.0241051,-0.00401751 0,-0.00502189 0,-0.0100438 0,-0.0160701 0.00602627,-0.00401751 0.0120525,-0.0090394 0.0180788,-0.0140613 0,-0.00301313 0,-0.00602627 0.00100438,-0.0100438 -0.00803503,-0.00803503 -0.0160701,-0.0160701 -0.0241051,-0.0241051 0,-0.00200876 0,-0.00401751 -0.00100438,-0.00602627 -0.0170744,0.00100438 -0.0351532,0.00200876 -0.053232,0.00401751 -0.0773371,0.0140613 -0.0773371,0.0140613 -0.106464,0.0170744 -0.00703065,0.00200876 -0.0140613,0.00401751 -0.0210919,0.00703065 -0.0873809,0.0130569 -0.0873809,0.0130569 -0.16974,0.0210919 -0.00703065,0.0090394 -0.0150657,0.0180788 -0.0231007,0.0271182 0,0.0281226 0,0.0562452 0,0.0843678 0.00200876,0.0210919 0.00401751,0.0421839 0.00703065,0.0632758 0,0.0220963 0,0.0441926 0,0.0672933 0.00401751,0.0160701 0.00803503,0.0331445 0.0130569,0.0502189 0.0130569,0.120525 0.0170744,0.130569 0.0170744,0.15367 -0.0090394,0.0180788 -0.0090394,0.0180788 -0.0200876,0.0331445 0.00301313,0.0472058 0.00301313,0.0472058 0.00602627,0.2752 0.00100438,0.0100438 0.00301313,0.0200876 0.00502189,0.0311357 0.00200876,0.00200876 0.00401751,0.00401751 0.00602627,0.00602627 0.00602627,0 0.0120525,0 0.0180788,0.00100438 0.0100438,-0.00401751 0.037162,-0.00703065 0.053232,-0.0140613 0.0552408,-0.0150657 0.0552408,-0.0150657 0.0582539,-0.0180788 0.0241051,-0.00502189 0.0482102,-0.0100438 0.0723152,-0.0150657 0.029127,-0.0090394 0.0582539,-0.0180788 0.0873809,-0.0271182 0.0431883,-0.00602627 0.0431883,-0.00602627 0.0542364,-0.0110482 0,-0.00401751 0,-0.00803503 0.00100438,-0.0130569 -0.0090394,-0.0190832 -0.0090394,-0.0190832 -0.0241051,-0.0401751 0,-0.00602627 0,-0.0120525 0.00100438,-0.0180788 0.00803503,-0.00401751 0.00803503,-0.00401751 0.0180788,-0.00401751 0.00200876,0.00100438 0.00502189,0.00200876 0.00803503,0.00401751 0.0100438,0.0140613 0.0200876,0.029127 0.0301313,0.0441926 0.00200876,0.0090394 0.00401751,0.0180788 0.00703065,0.0271182 0,0.0170744 0,0.0351532 0,0.053232 -0.00200876,0.00401751 -0.00401751,0.00803503 -0.00602627,0.0120525 -0.00100438,0.0180788 -0.00100438,0.0180788 0.00602627,0.0682977 0.00401751,0.0090394 0.00803503,0.0180788 0.0130569,0.0271182 -0.00100438,0.0090394 -0.00301313,0.0180788 -0.00502189,0.0271182 -0.00401751,0.00100438 -0.00803503,0.00200876 -0.0130569,0.00401751 -0.00401751,-0.00100438 -0.0090394,-0.00200876 -0.0140613,-0.00401751 -0.00100438,-0.00803503 -0.00301313,-0.0160701 -0.00502189,-0.0241051 -0.0110482,-0.0140613 -0.0220963,-0.0231007 -0.0321401,-0.0381664 -0.00100438,-0.0120525 -0.00100438,-0.0120525 0.00301313,-0.0190832 0.00200876,-0.00200876 0.00502189,-0.00401751 0.00803503,-0.00602627 0.00100438,-0.0130569 0.00100438,-0.0130569 -0.00301313,-0.0210919 -0.0140613,-0.00100438 -0.0472058,0.00602627 -0.0843678,0.0090394 -0.0261138,0.00703065 -0.0733196,0.0130569 -0.241051,0.0472058 -0.00703065,0.00401751 -0.00703065,0.00401751 -0.0140613,0.0130569 -0.00100438,0.0220963 -0.00200876,0.0441926 -0.00401751,0.0672933 0.00100438,0.0261138 0.00200876,0.0522277 0.00301313,0.0783415 -0.00100438,0.178779 -0.00200876,0.357559 -0.00301313,0.536338 -0.00100438,0.0220963 -0.00200876,0.0441926 -0.00401751,0.066289 0.00200876,0.00301313 0.00502189,0.00703065 0.00803503,0.0110482 0.00803503,0.00100438 0.00803503,0.00100438 0.0441926,-0.00602627 0.0140613,-0.00703065 0.0672933,-0.0200876 0.107468,-0.0331445 0.0130569,-0.00200876 0.0261138,-0.00401751 0.0401751,-0.00703065 0.0251095,-0.0090394 0.0512233,-0.0180788 0.0773371,-0.0271182 0.0321401,-0.00803503 0.0642802,-0.0160701 0.0974247,-0.0241051 0.00100438,-0.00703065 0.00100438,-0.00703065 -0.00602627,-0.0241051 -0.00502189,-0.00602627 -0.0110482,-0.0130569 -0.0170744,-0.0200876 -0.00301313,-0.0150657 -0.00301313,-0.0150657 -0.00100438,-0.0231007 0.00703065,-0.00200876 0.00703065,-0.00200876 0.0251095,-0.00100438 0.00703065,0.0090394 0.0140613,0.0190832 0.0210919,0.029127 0.00602627,0.0130569 0.0120525,0.0261138 0.0190832,0.0391708 0,0.00803503 0,0.0170744 0,0.0261138 -0.00602627,0.0110482 -0.0130569,0.0220963 -0.0200876,0.0341489 0,0.0160701 0.00602627,0.0401751 0.00602627,0.0562452 -0.00100438,0.00401751 -0.00301313,0.00803503 -0.00502189,0.0120525 -0.00502189,0.00401751 -0.0100438,0.00803503 -0.0160701,0.0130569 -0.0130569,0 -0.0130569,0 -0.0241051,-0.00401751 -0.00100438,-0.00301313 -0.00301313,-0.00602627 -0.00502189,-0.0090394 0.00200876,-0.00502189 0.00401751,-0.0100438 0.00602627,-0.0150657 0.00200876,-0.00100438 0.00401751,-0.00200876 0.00703065,-0.00301313 0.00100438,-0.0100438 0.00100438,-0.0100438 -0.00401751,-0.0301313 -0.0100438,0 -0.0200876,-0.00100438 -0.0301313,-0.00200876 -0.0572496,0.0130569 -0.0833634,0.0160701 -0.0934072,0.0200876 -0.0492145,0.00803503 -0.0984291,0.0170744 -0.147644,0.0261138 -0.0241051,0.00602627 -0.0482102,0.0120525 -0.0723152,0.0180788 -0.0120525,0.0100438 -0.0120525,0.0100438 -0.0170744,0.0180788 -0.00301313,0.0783415 -0.00602627,0.157687 -0.0100438,0.237033 0.00100438,0.00301313 0.00200876,0.00602627 0.00401751,0.0100438 0,0.0582539 0,0.116508 0,0.174762 -0.00200876,0.00602627 -0.00401751,0.0130569 -0.00703065,0.0200876 -0.00200876,0.0301313 -0.00401751,0.0602627 -0.00703065,0.0913984 0,0.0642802 0,0.12856 0,0.192841 0.00803503,0.0281226 0.00803503,0.0281226 0.0110482,0.0301313 0.00803503,0 0.0160701,0 0.0251095,0.00100438 0.0331445,-0.00602627 0.0401751,-0.0100438 0.090394,-0.0200876 0.00803503,-0.00502189 0.00803503,-0.00502189 0.0964203,-0.0331445 0.0200876,-0.00401751 0.0401751,-0.00803503 0.0602627,-0.0130569 0.0401751,-0.0140613 0.0401751,-0.0140613 0.0672933,-0.0271182 0.0100438,0 0.0200876,0 0.0301313,-0.00100438 -0.00401751,-0.0090394 -0.00401751,-0.0090394 -0.0110482,-0.0160701 0,-0.00602627 0,-0.0120525 -0.00100438,-0.0180788 0.00401751,-0.00703065 0.00803503,-0.0140613 0.0130569,-0.0220963 -0.0100438,-0.0200876 -0.0200876,-0.0401751 -0.0301313,-0.0602627 0.00100438,-0.00401751 0.00301313,-0.00803503 0.00502189,-0.0120525 0.00200876,-0.00100438 0.00401751,-0.00200876 0.00703065,-0.00401751 0.00502189,0 0.0110482,0.00100438 0.0170744,0.00200876 0.00100438,0.00602627 0.0190832,0.0281226 0.0351532,0.0562452 0.00100438,0.00703065 0.00200876,0.0140613 0.00301313,0.0220963 -0.00301313,0.0180788 -0.00301313,0.0180788 -0.00200876,0.0331445 0.00602627,0.0110482 0.0120525,0.0231007 0.0190832,0.0351532 0,0.0100438 0,0.0200876 0,0.0301313 -0.0090394,0.0120525 -0.0090394,0.0120525 -0.0100438,0.0200876 0.0100438,0.0140613 0.0100438,0.0140613 0.0130569,0.0241051 -0.00100438,0.00803503 -0.00200876,0.0170744 -0.00301313,0.0261138 -0.00602627,0.00803503 -0.00602627,0.00803503 -0.00803503,0.0170744 -0.00803503,0.00301313 -0.0170744,0.00703065 -0.0261138,0.0110482 -0.00401751,-0.00200876 -0.00803503,-0.00401751 -0.0120525,-0.00703065 0,-0.00602627 0,-0.0120525 0,-0.0190832 0.00301313,-0.00301313 0.00602627,-0.00602627 0.0100438,-0.0100438 0,-0.00602627 0,-0.0130569 0,-0.0200876 -0.00502189,-0.00602627 -0.00502189,-0.00602627 -0.0220963,-0.0140613 -0.0140613,0 -0.160701,0.0301313 -0.170744,0.0341489 -0.0441926,0.00602627 -0.0441926,0.00602627 -0.180788,0.0361576 -0.00401751,0.00401751 -0.00401751,0.00401751 -0.0160701,0.00803503 -0.0100438,0.0180788 -0.0100438,0.0180788 -0.0160701,0.0411795 -0.00100438,0.0632758 -0.00200876,0.126552 -0.00401751,0.190832 0.00200876,0.00502189 0.00401751,0.0110482 0.00703065,0.0170744 0.0130569,0.113495 0.0130569,0.113495 0.0170744,0.130569 0,0.0200876 -0.00100438,0.0401751 -0.00200876,0.0612671 -0.00803503,0.00703065 -0.0160701,0.0140613 -0.0241051,0.0210919 -0.00200876,0.00401751 -0.00502189,0.0090394 -0.00803503,0.0140613 -0.00100438,0.0341489 -0.00200876,0.0693021 -0.00301313,0.104455 -0.00200876,0.0100438 -0.00401751,0.0200876 -0.00703065,0.0301313 -0.00200876,0.0472058 -0.00401751,0.0954159 -0.00602627,0.143626 0.00602627,0.0130569 0.0140613,0.0210919 0.0231007,0.037162 0.00200876,0.00803503 0.00401751,0.0170744 0.00703065,0.0261138 0,0.045197 0,0.0913984 0,0.1376 -0.00703065,0.0170744 -0.00703065,0.0170744 -0.0220963,0.0411795 -0.0090394,0.0100438 -0.0180788,0.0200876 -0.0271182,0.0301313 -0.00803503,0.0160701 -0.00803503,0.0160701 -0.0110482,0.029127 -0.0140613,0.251095 -0.0170744,0.268169 -0.0170744,0.302318 -0.00301313,0.029127 -0.00703065,0.0421839 -0.0100438,0.0994335 -0.00200876,0.00502189 -0.00502189,0.0110482 -0.00803503,0.0170744 -0.00401751,0.00301313 -0.00803503,0.00602627 -0.0130569,0.0100438z"/>
   <path id="_125276984" class="fil1" d="M0.591579 4.73263c-0.00301313,-0.0120525 -0.00602627,-0.0251095 -0.0090394,-0.0381664 -0.00602627,-0.066289 -0.00602627,-0.116508 -0.0130569,-0.176771 -0.00100438,-0.0210919 -0.00200876,-0.0421839 -0.00301313,-0.0642802 -0.00301313,-0.0200876 -0.00602627,-0.0411795 -0.0100438,-0.0622715 0,-0.0180788 0,-0.037162 0,-0.0562452 0.00502189,-0.00703065 0.00502189,-0.00703065 0.0140613,-0.0130569 0.0120525,-0.00200876 0.0251095,-0.00401751 0.0381664,-0.00703065 0.00301313,0.00100438 0.00703065,0.00200876 0.0110482,0.00401751 0.00100438,0.00200876 0.00200876,0.00401751 0.00301313,0.00703065 -0.00200876,0.0693021 -0.00401751,0.138604 -0.00602627,0.208911 -0.00301313,0.0180788 -0.00602627,0.037162 -0.0100438,0.0562452 0.00100438,0.00803503 0.00200876,0.0170744 0.00301313,0.0261138 -0.00301313,0.0381664 -0.00703065,0.0763327 -0.0110482,0.115504 -0.00200876,0 -0.00401751,0 -0.00703065,0z"/>
   <path id="_125152968" class="fil1" d="M0.538347 4.30075c-0.0090394,-0.00602627 -0.0090394,-0.00602627 -0.0170744,-0.0190832 -0.00502189,-0.0150657 -0.00502189,-0.0150657 -0.0090394,-0.0552408 0.0140613,-0.0542364 0.0140613,-0.0542364 0.0140613,-0.066289 -0.00100438,-0.00301313 -0.00200876,-0.00602627 -0.00401751,-0.0100438 0.00301313,-0.0301313 0.00301313,-0.0301313 0.00703065,-0.0391708 0.00301313,-0.00301313 0.00703065,-0.00602627 0.0110482,-0.0100438 0.00502189,0 0.0100438,0 0.0160701,0 0.0180788,0.0160701 0.0180788,0.0160701 0.0351532,0.0271182 0.0100438,0.00100438 0.0210919,0.00200876 0.0321401,0.00301313 0.00602627,-0.00200876 0.0120525,-0.00502189 0.0190832,-0.00803503 0.00602627,-0.00502189 0.0120525,-0.0100438 0.0180788,-0.0150657 0.00401751,0 0.00803503,0 0.0120525,0 0.00100438,0.00200876 0.00200876,0.00401751 0.00401751,0.00703065 0.00301313,0.0642802 0.00301313,0.0642802 0.00301313,0.141617 -0.00803503,0.0190832 -0.00803503,0.0190832 -0.0170744,0.0311357 -0.00401751,0.00301313 -0.0090394,0.00703065 -0.0140613,0.0110482 -0.0251095,0 -0.0381664,-0.00401751 -0.0602627,-0.00401751 -0.0140613,0.00401751 -0.0140613,0.00401751 -0.0502189,0.00602627z"/>
   <path id="_125411456" class="fil1" d="M0.598609 4.10992c-0.0150657,-0.0130569 -0.0150657,-0.0130569 -0.0190832,-0.0200876 0,-0.0120525 0,-0.0241051 0,-0.0361576 0.00703065,-0.0120525 0.00703065,-0.0120525 0.0100438,-0.0231007 0.00301313,-0.00200876 0.00602627,-0.00401751 0.0100438,-0.00602627 0.00803503,0 0.0170744,0 0.0261138,0 0.00703065,0.0090394 0.00703065,0.0090394 0.0140613,0.0271182 0,0.0281226 0,0.0281226 -0.00401751,0.0431883 -0.00200876,0.00301313 -0.00401751,0.00602627 -0.00602627,0.0090394 -0.0100438,0.00200876 -0.0200876,0.00401751 -0.0311357,0.00602627z"/>
   <path id="_125411680" class="fil1" d="M0.551404 4.02555c-0.00301313,-0.0281226 -0.00602627,-0.0562452 -0.0090394,-0.0853722 0,-0.0612671 0,-0.0612671 -0.00602627,-0.141617 0.00200876,-0.0401751 0.00200876,-0.0401751 0.00502189,-0.045197 0.00301313,0 0.00602627,-0.00100438 0.0100438,-0.00200876 0.00502189,0.0622715 0.00502189,0.0622715 0.00502189,0.110482 0.00301313,0.00401751 0.00602627,0.00803503 0.0090394,0.0120525 0.00602627,0.00401751 0.0120525,0.00803503 0.0190832,0.0130569 0.0241051,-0.00401751 0.0241051,-0.00401751 0.0311357,-0.0090394 0.00301313,-0.0090394 0.00703065,-0.0180788 0.0110482,-0.0271182 0.00301313,-0.0672933 0.00301313,-0.0672933 0.00703065,-0.0873809 0.00703065,-0.00401751 0.00703065,-0.00401751 0.0160701,-0.00401751 0.00401751,0.00301313 0.00803503,0.00602627 0.0120525,0.0100438 0.00100438,0.00301313 0.00301313,0.00703065 0.00502189,0.0110482 0,0.0140613 0,0.029127 0,0.0441926 -0.00401751,0.045197 -0.00803503,0.0913984 -0.0120525,0.1376 -0.00200876,0 -0.00401751,0 -0.00602627,0 -0.00100438,-0.0110482 -0.00301313,-0.0231007 -0.00502189,-0.0351532 -0.00301313,-0.00502189 -0.00602627,-0.0110482 -0.0090394,-0.0170744 -0.00401751,-0.00200876 -0.00803503,-0.00401751 -0.0130569,-0.00602627 -0.00502189,0 -0.0110482,0 -0.0170744,-0.00100438 -0.00803503,0.00502189 -0.0160701,0.0100438 -0.0251095,0.0150657 -0.00703065,0.0441926 -0.0100438,0.0843678 -0.0140613,0.0994335 -0.00703065,0.00602627 -0.00703065,0.00602627 -0.0140613,0.00803503z"/>
   <path id="_125416320" class="fil1" d="M0.601623 3.9924c0,-0.0090394 -0.00100438,-0.0180788 -0.00200876,-0.0281226 0.00200876,-0.00602627 0.00401751,-0.0130569 0.00703065,-0.0200876 0.00200876,0 0.00502189,-0.00100438 0.00803503,-0.00200876 0.00200876,0.0120525 0.00200876,0.0120525 0.00100438,0.0441926 -0.00401751,0.00401751 -0.00401751,0.00401751 -0.0140613,0.00602627z"/>
   <path id="_125415872" class="fil1" d="M0.588566 3.8548c-0.00602627,-0.0140613 -0.00602627,-0.0140613 -0.0090394,-0.0331445 0.00100438,-0.0190832 0.00200876,-0.0391708 0.00401751,-0.0592583 0.00502189,-0.00100438 0.0100438,-0.00200876 0.0160701,-0.00301313 0.00200876,0.00602627 0.00502189,0.0120525 0.00803503,0.0190832 0,0.0210919 0,0.0421839 -0.00100438,0.0632758 -0.00100438,0.00301313 -0.00200876,0.00703065 -0.00401751,0.0110482 -0.00401751,0 -0.0090394,0.00100438 -0.0140613,0.00200876z"/>
   <path id="_125414784" class="fil1" d="M0.551404 3.69812c-0.00301313,-0.00401751 -0.00602627,-0.00803503 -0.0100438,-0.0120525 -0.00803503,-0.00100438 -0.0160701,-0.00200876 -0.0251095,-0.00401751 0,-0.00602627 0,-0.0120525 -0.00100438,-0.0190832 -0.00200876,-0.00301313 -0.00401751,-0.00602627 -0.00602627,-0.0090394 0,-0.00301313 0,-0.00703065 0,-0.0110482 0.00301313,-0.00703065 0.00602627,-0.0150657 0.0100438,-0.0231007 0.00200876,-0.0160701 0.00401751,-0.0321401 0.00703065,-0.0482102 0.00602627,-0.0120525 0.00602627,-0.0120525 0.0100438,-0.0331445 0.00301313,-0.00301313 0.00602627,-0.00703065 0.0090394,-0.0110482 0.00100438,-0.00703065 0.00200876,-0.0140613 0.00401751,-0.0220963 0.0180788,-0.00401751 0.0180788,-0.00401751 0.0441926,-0.0170744 0.0381664,0.00301313 0.0381664,0.00301313 0.053232,0.00703065 0.00703065,0.00502189 0.00703065,0.00502189 0.0200876,0.0271182 0.00100438,0.00703065 0.00200876,0.0140613 0.00301313,0.0210919 0.00301313,0.00502189 0.00703065,0.0110482 0.0110482,0.0170744 0,0.0311357 0,0.0622715 -0.00100438,0.0944116 -0.00502189,0 -0.0100438,0 -0.0160701,0.00100438 -0.00100438,0.0241051 -0.00100438,0.0241051 0.00100438,0.0381664 -0.00301313,0 -0.00703065,-0.00100438 -0.0110482,-0.00200876 -0.0100438,-0.0110482 -0.0200876,-0.0220963 -0.0301313,-0.0331445 0,-0.00401751 0,-0.00803503 0,-0.0130569 0.00602627,-0.00703065 0.00602627,-0.00703065 0.0160701,-0.0130569 0.00602627,0 0.0130569,0.00100438 0.0200876,0.00200876 0,-0.0231007 0,-0.0462014 0,-0.0693021 -0.00301313,-0.00401751 -0.00602627,-0.00803503 -0.0100438,-0.0130569 -0.00100438,-0.00803503 -0.00200876,-0.0170744 -0.00401751,-0.0261138 -0.00200876,-0.00200876 -0.00502189,-0.00502189 -0.00803503,-0.00803503 -0.00602627,-0.00200876 -0.0130569,-0.00401751 -0.0200876,-0.00703065 -0.0100438,0 -0.0200876,0 -0.0311357,0.00100438 -0.00200876,0.00301313 -0.00502189,0.00602627 -0.00803503,0.0090394 -0.00301313,0.00100438 -0.00602627,0.00200876 -0.0100438,0.00301313 -0.00200876,0.00803503 -0.00401751,0.0160701 -0.00602627,0.0241051 -0.00200876,0.00100438 -0.00401751,0.00200876 -0.00703065,0.00301313 -0.00301313,0.0170744 -0.00301313,0.0170744 -0.0090394,0.029127 0,0.0180788 0,0.037162 0,0.0562452 0.00301313,0.00200876 0.00301313,0.00200876 0.00301313,0.0271182 0.00703065,0.00602627 0.0150657,0.0120525 0.0231007,0.0180788 -0.00100438,0.00301313 -0.00200876,0.00602627 -0.00301313,0.0100438 -0.00602627,0.00200876 -0.0120525,0.00401751 -0.0180788,0.00602627z"/>
   <path id="_125414976" class="fil1" d="M0.280222 3.66799c-0.0200876,-0.00602627 -0.0602627,-0.0120525 -0.0672933,-0.0160701 -0.0301313,-0.00301313 -0.0602627,-0.0100438 -0.100438,-0.0130569 -0.00502189,-0.00200876 -0.0110482,-0.00502189 -0.0170744,-0.00803503 -0.00100438,-0.00301313 -0.00301313,-0.00602627 -0.00502189,-0.0090394 0.00100438,-0.00100438 0.00301313,-0.00301313 0.00502189,-0.00502189 0.0110482,0 0.0231007,0 0.0351532,-0.00100438 0.0130569,0.00200876 0.0261138,0.00401751 0.0391708,0.00602627 0.0261138,0.00803503 0.053232,0.0160701 0.0803503,0.0241051 0.0401751,0.00602627 0.0401751,0.00602627 0.0502189,0.0110482 0.00100438,0.00200876 0.00200876,0.00401751 0.00301313,0.00703065 -0.00703065,0.00100438 -0.0150657,0.00200876 -0.0231007,0.00401751z"/>
   <path id="_125169584" class="fil1" d="M0.588566 3.62078c-0.0150657,-0.0120525 -0.0150657,-0.0120525 -0.0190832,-0.0200876 -0.00100438,-0.0100438 -0.00200876,-0.0200876 -0.00301313,-0.0311357 0.00100438,-0.00301313 0.00200876,-0.00703065 0.00301313,-0.0110482 0.00602627,-0.00703065 0.0130569,-0.0150657 0.0200876,-0.0231007 0.00703065,0 0.0150657,0 0.0231007,0 0.00401751,0.00401751 0.00803503,0.00803503 0.0130569,0.0130569 0.00100438,0.00301313 0.00200876,0.00703065 0.00401751,0.0110482 0,0.0140613 0,0.0281226 0,0.0431883 -0.00502189,0.00502189 -0.0100438,0.0100438 -0.0160701,0.0160701 -0.00803503,0 -0.0160701,0.00100438 -0.0251095,0.00200876z"/>
   <path id="_125168464" class="fil1" d="M0.521272 3.50729c-0.00301313,-0.0200876 -0.00602627,-0.0401751 -0.0090394,-0.0602627 0,-0.0301313 0,-0.0602627 0,-0.090394 0.00502189,-0.0160701 0.00502189,-0.0160701 0.00803503,-0.0180788 0.0090394,0 0.0180788,0 0.0281226,-0.00100438 0.00200876,0.00100438 0.00401751,0.00200876 0.00703065,0.00401751 0.00200876,0.0301313 0.00401751,0.0602627 0.00703065,0.0913984 0.00200876,0.00401751 0.00401751,0.0090394 0.00703065,0.0140613 0,0.00703065 -0.00100438,0.0140613 -0.00200876,0.0210919 -0.00803503,0.00602627 -0.0160701,0.0120525 -0.0251095,0.0180788 -0.00803503,0.0120525 -0.00803503,0.0120525 -0.0210919,0.0210919z"/>
   <path id="_125169408" class="fil1" d="M0.654855 3.48318c-0.00502189,-0.00703065 -0.00502189,-0.00703065 -0.0281226,-0.0200876 0.00301313,-0.0341489 0.00301313,-0.0341489 0.00301313,-0.12153 0.00100438,-0.00502189 0.00301313,-0.0110482 0.00502189,-0.0170744 0.00301313,-0.00200876 0.00602627,-0.00401751 0.0090394,-0.00703065 0.0100438,0 0.0200876,0 0.0301313,0 0.00301313,0.00401751 0.00602627,0.00803503 0.0100438,0.0120525 -0.00401751,0.113495 -0.00401751,0.113495 -0.00803503,0.145635 -0.00100438,0.00200876 -0.00200876,0.00401751 -0.00401751,0.00602627 -0.00502189,0 -0.0110482,0.00100438 -0.0170744,0.00200876z"/>
   <path id="_124978192" class="fil1" d="M0.598609 3.43296c-0.00301313,-0.00100438 -0.00602627,-0.00301313 -0.0090394,-0.00502189 -0.00301313,-0.0110482 -0.00301313,-0.0110482 -0.00401751,-0.0883853 0.00301313,-0.00502189 0.00301313,-0.00502189 0.0130569,-0.0090394 0.00100438,0 0.00301313,0.00100438 0.00502189,0.00200876 0.00200876,0.00502189 0.00401751,0.0100438 0.00602627,0.0160701 0,0.0241051 0,0.0482102 0,0.0733196 -0.00301313,0.00301313 -0.00703065,0.00703065 -0.0110482,0.0110482z"/>
   <path id="_124979136" class="fil1" d="M0.491141 3.29235c0,-0.00703065 -0.00100438,-0.0140613 -0.00200876,-0.0210919 0.0100438,-0.0472058 0.0100438,-0.0472058 0.0130569,-0.0492145 0.00100438,-0.0200876 0.00200876,-0.0401751 0.00401751,-0.0612671 0.00602627,-0.0261138 0.00602627,-0.0261138 0.0170744,-0.0542364 0.00602627,-0.00602627 0.0120525,-0.0130569 0.0180788,-0.0200876 0.00602627,-0.00401751 0.0130569,-0.0090394 0.0200876,-0.0140613 0.00602627,-0.00200876 0.0120525,-0.00401751 0.0190832,-0.00602627 0.0130569,0 0.0261138,0 0.0391708,0 0.00401751,0.00200876 0.0090394,0.00401751 0.0140613,0.00703065 0.00100438,0.00301313 0.00301313,0.00703065 0.00502189,0.0110482 0.00703065,0.00200876 0.00703065,0.00200876 0.0140613,0.0090394 0.00401751,0.0210919 0.00703065,0.0231007 0.00703065,0.0391708 -0.00502189,0 -0.0100438,0 -0.0160701,0 -0.00703065,-0.0090394 -0.00703065,-0.0090394 -0.0110482,-0.0210919 -0.00703065,-0.00602627 -0.0140613,-0.0120525 -0.0210919,-0.0180788 -0.0301313,0 -0.0301313,0 -0.045197,0.00301313 -0.0090394,0.0090394 -0.0190832,0.0180788 -0.029127,0.0271182 -0.00301313,0.0100438 -0.00703065,0.0210919 -0.0110482,0.0321401 -0.00200876,0.0331445 -0.00401751,0.0672933 -0.00703065,0.101442 -0.00401751,0.00100438 -0.00803503,0.00200876 -0.0120525,0.00401751 -0.00401751,0.00703065 -0.00401751,0.00703065 -0.00803503,0.029127 -0.00200876,0 -0.00502189,0.00100438 -0.00803503,0.00200876z"/>
   <path id="_124979328" class="fil1" d="M0.631754 3.27226c-0.00100438,-0.00100438 -0.00200876,-0.00301313 -0.00301313,-0.00502189 0.0110482,-0.0120525 0.0190832,-0.029127 0.037162,-0.0492145 0.00200876,-0.00803503 0.00502189,-0.0160701 0.00803503,-0.0241051 0.00301313,0 0.00703065,0 0.0110482,0 0.00100438,0.00100438 0.00200876,0.00301313 0.00301313,0.00502189 0,0.0160701 -0.00100438,0.0321401 -0.00200876,0.0482102 -0.029127,0.0140613 -0.029127,0.0140613 -0.0401751,0.0231007 -0.00401751,0 -0.0090394,0.00100438 -0.0140613,0.00200876z"/>
   <path id="_124981448" class="fil1" d="M0.588566 3.25619c-0.00100438,-0.00200876 -0.00200876,-0.00401751 -0.00301313,-0.00602627 0.00200876,-0.00401751 0.00502189,-0.00803503 0.00803503,-0.0130569 0.0110482,-0.00401751 0.0110482,-0.00401751 0.0160701,-0.00200876 0.00100438,0.00401751 0.00200876,0.00803503 0.00301313,0.0120525 -0.00803503,0.00301313 -0.0160701,0.00602627 -0.0241051,0.0090394z"/>
   <path id="_124981304" class="fil1" d="M0.534329 3.25218c0.00502189,-0.0331445 0.00502189,-0.0331445 0.0090394,-0.0411795 0.00502189,0 0.0100438,0 0.0150657,-0.00100438 0.00200876,0.00100438 0.00401751,0.00301313 0.00703065,0.00502189 0,0.00401751 0,0.00803503 -0.00100438,0.0120525 -0.00401751,0.00502189 -0.0090394,0.0110482 -0.0140613,0.0170744 -0.00502189,0.00200876 -0.0100438,0.00502189 -0.0160701,0.00803503z"/>
   <path id="_124982616" class="fil1" d="M0.879835 3.23209c0.00200876,-0.00401751 0.00200876,-0.00401751 0.0120525,-0.00803503 0.0120525,-0.00200876 0.0251095,-0.00401751 0.0381664,-0.00703065 0.0120525,-0.00703065 0.0331445,-0.0140613 0.0602627,-0.0271182 0.0281226,-0.00602627 0.0562452,-0.0130569 0.0853722,-0.0200876 0.0150657,0 0.0150657,0 0.0251095,0.00401751 0,0.00200876 0.00100438,0.00401751 0.00200876,0.00602627 -0.00502189,0.00502189 -0.0110482,0.0110482 -0.0170744,0.0170744 -0.0401751,0.00703065 -0.0441926,0.0100438 -0.11249,0.0231007 -0.0311357,0.00401751 -0.0622715,0.00803503 -0.0934072,0.0120525z"/>
   <path id="_124982928" class="fil1" d="M0.588566 3.1889c-0.0090394,-0.00602627 -0.0090394,-0.00602627 -0.0150657,-0.0160701 -0.00401751,-0.0140613 -0.00401751,-0.0140613 -0.00401751,-0.0251095 0.00301313,-0.00703065 0.00602627,-0.0140613 0.0100438,-0.0210919 0.00401751,-0.00200876 0.00803503,-0.00401751 0.0130569,-0.00602627 0.00703065,0 0.0150657,0 0.0231007,0 0.00703065,0.00602627 0.00703065,0.00602627 0.0170744,0.0271182 0,0.00803503 0,0.0170744 0,0.0261138 -0.00100438,0.00200876 -0.00200876,0.00401751 -0.00401751,0.00602627 -0.0130569,0.00301313 -0.0261138,0.00602627 -0.0401751,0.0090394z"/>
   <path id="_124984704" class="fil1" d="M0.674942 3.08143c-0.0180788,-0.0130569 -0.0361576,-0.0271182 -0.0552408,-0.0411795 0.00301313,-0.0552408 0.00301313,-0.0552408 0.0100438,-0.117512 0.00200876,-0.00200876 0.00401751,-0.00401751 0.00703065,-0.00703065 0.0090394,0.00100438 0.0180788,0.00200876 0.0281226,0.00301313 0.00602627,0.00301313 0.0120525,0.00602627 0.0190832,0.0090394 0.00100438,0.00200876 0.00200876,0.00401751 0.00401751,0.00703065 0.00100438,0.0210919 0.00301313,0.0431883 0.00502189,0.0652846 -0.00100438,0.0271182 -0.00200876,0.0542364 -0.00401751,0.0813546 -0.00401751,0 -0.0090394,0 -0.0140613,0z"/>
   <path id="_124985760" class="fil1" d="M0.521272 3.03824c-0.0120525,-0.0120525 -0.0120525,-0.0120525 -0.0150657,-0.0200876 0,-0.0913984 0,-0.0913984 0.00301313,-0.11249 0.00401751,-0.00301313 0.0090394,-0.00602627 0.0140613,-0.0100438 0.00602627,0 0.0130569,0 0.0200876,0 0.00200876,0.00100438 0.00401751,0.00200876 0.00602627,0.00401751 0.00301313,0.0281226 0.00301313,0.0281226 0.00301313,0.118517 -0.00100438,0.00301313 -0.00200876,0.00703065 -0.00301313,0.0110482 -0.0130569,0.00703065 -0.0130569,0.00703065 -0.0281226,0.0090394z"/>
   <path id="_124985864" class="fil1" d="M0.584548 3.01514c-0.00100438,-0.00200876 -0.00301313,-0.00401751 -0.00502189,-0.00703065 -0.00301313,-0.0261138 -0.00301313,-0.0261138 -0.00100438,-0.0934072 0.00100438,-0.00301313 0.00301313,-0.00602627 0.00502189,-0.0090394 0.00401751,0 0.00803503,0 0.0130569,0 0.00200876,0.00703065 0.00401751,0.0140613 0.00602627,0.0210919 0,0.0231007 0,0.0462014 0.00100438,0.0693021 -0.00401751,0.0130569 -0.00401751,0.0130569 -0.0090394,0.0170744 -0.00301313,0 -0.00602627,0.00100438 -0.0100438,0.00200876z"/>
   <path id="_124987328" class="fil1" d="M0.692017 2.86047c-0.00502189,-0.0100438 -0.00502189,-0.0100438 -0.0090394,-0.0341489 0.00200876,-0.00602627 0.00401751,-0.0120525 0.00703065,-0.0180788 0.00301313,0.00100438 0.0100438,0.0381664 0.0100438,0.0502189 -0.00200876,0 -0.00502189,0.00100438 -0.00803503,0.00200876z"/>
   <path id="_124987072" class="fil1" d="M0.504198 2.82431c-0.00200876,-0.0090394 -0.00200876,-0.0090394 0.00200876,-0.0271182 -0.00100438,-0.00401751 -0.00200876,-0.00803503 -0.00401751,-0.0130569 0.0110482,-0.0492145 0.0110482,-0.0492145 0.0130569,-0.0502189 0.00100438,0.00301313 0.00200876,0.00602627 0.00401751,0.0090394 0,0.00803503 0,0.0160701 0,0.0241051 0.00401751,0.00602627 0.00803503,0.0120525 0.0130569,0.0190832 0.00200876,0.00803503 0.00401751,0.0160701 0.00703065,0.0241051 0.00401751,0.00301313 0.00803503,0.00703065 0.0130569,0.0110482 -0.0160701,0.00100438 -0.0321401,0.00200876 -0.0482102,0.00301313z"/>
   <path id="_124989312" class="fil1" d="M0.202884 2.81728c-0.0180788,-0.00401751 -0.037162,-0.00803503 -0.0562452,-0.0120525 -0.0130569,-0.00100438 -0.0261138,-0.00200876 -0.0401751,-0.00301313 -0.00502189,-0.00200876 -0.0100438,-0.00502189 -0.0150657,-0.00803503 0,-0.00401751 -0.00100438,-0.0090394 -0.00200876,-0.0140613 0.00703065,0 0.0150657,-0.00100438 0.0231007,-0.00200876 0.029127,0.00602627 0.0582539,0.0130569 0.0873809,0.0200876 0.0231007,0.0100438 0.0231007,0.0100438 0.0271182,0.0140613 -0.00803503,0.00100438 -0.0160701,0.00301313 -0.0241051,0.00502189z"/>
   <path id="_124990128" class="fil1" d="M0.594592 2.75702c-0.00703065,-0.00200876 -0.0140613,-0.00401751 -0.0220963,-0.00703065 -0.00100438,-0.00602627 -0.00200876,-0.0130569 -0.00301313,-0.0200876 0.00301313,-0.00703065 0.00602627,-0.0150657 0.0090394,-0.0231007 0.00200876,-0.00100438 0.00502189,-0.00200876 0.00803503,-0.00401751 0.00803503,0 0.0170744,0 0.0261138,0 0.00602627,0.00602627 0.00602627,0.00602627 0.0140613,0.0241051 0,0.00301313 0,0.00602627 0,0.0100438 -0.0110482,0.0140613 -0.0110482,0.0140613 -0.0180788,0.0180788 -0.00401751,0 -0.0090394,0.00100438 -0.0140613,0.00200876z"/>
   <path id="_124991504" class="fil1" d="M0.674942 2.73994c-0.00100438,-0.00401751 -0.00301313,-0.0090394 -0.00502189,-0.0140613 -0.0100438,-0.0130569 -0.0210919,-0.0271182 -0.0321401,-0.0411795 -0.00502189,-0.00301313 -0.0110482,-0.00602627 -0.0170744,-0.0100438 -0.0160701,0 -0.0321401,0 -0.0492145,-0.00100438 0,-0.00401751 0.00100438,-0.00803503 0.00200876,-0.0120525 0.00502189,-0.00200876 0.0110482,-0.00401751 0.0170744,-0.00703065 0.0100438,0 0.0200876,0 0.0311357,0 0.00803503,0.00200876 0.0160701,0.00401751 0.0241051,0.00703065 0.0180788,0.0210919 0.0180788,0.0210919 0.0311357,0.0421839 0.00602627,0.0150657 0.00602627,0.0150657 0.00803503,0.0361576 -0.00301313,0 -0.00602627,0 -0.0100438,0z"/>
   <path id="_124991624" class="fil1" d="M0.501185 2.71986c-0.00200876,-0.0341489 -0.00200876,-0.0341489 0.00200876,-0.182797 0.00200876,-0.00602627 0.00401751,-0.0120525 0.00602627,-0.0190832 0.0140613,-0.0170744 0.0140613,-0.0170744 0.0241051,-0.0241051 0.0100438,-0.00301313 0.0100438,-0.00301313 0.0220963,-0.00301313 0.00200876,0.00200876 0.00401751,0.00401751 0.00703065,0.00703065 0.00100438,0.0331445 0.00200876,0.0672933 0.00401751,0.101442 0.00200876,0.00301313 0.00401751,0.00602627 0.00602627,0.0090394 -0.00100438,0.00803503 -0.00200876,0.0170744 -0.00301313,0.0261138 -0.00803503,0.00502189 -0.0160701,0.0110482 -0.0251095,0.0170744 -0.0251095,0.0281226 -0.0251095,0.0281226 -0.0331445,0.0431883 -0.00200876,0.00703065 -0.00401751,0.0150657 -0.00602627,0.0231007 -0.00100438,0 -0.00200876,0.00100438 -0.00401751,0.00200876z"/>
   <path id="_124993720" class="fil1" d="M0.681973 2.65959c-0.00502189,-0.00502189 -0.0110482,-0.0100438 -0.0170744,-0.0150657 -0.0311357,-0.0140613 -0.0311357,-0.0140613 -0.0351532,-0.0180788 0,-0.0180788 0,-0.0180788 0.00703065,-0.0592583 -0.00401751,-0.0462014 -0.00401751,-0.0462014 -0.00602627,-0.0492145 -0.00401751,0 -0.0090394,0 -0.0140613,0.00100438 -0.00100438,0.00301313 -0.00200876,0.00602627 -0.00401751,0.0100438 -0.00100438,0.0210919 -0.00200876,0.0421839 -0.00401751,0.0642802 -0.00602627,-0.00100438 -0.0120525,-0.00301313 -0.0190832,-0.00502189 0,-0.0231007 0,-0.0462014 0,-0.0703065 0.00200876,-0.00803503 0.00502189,-0.0160701 0.00803503,-0.0241051 0.00401751,0 0.00803503,0 0.0120525,0 0.00200876,0.00301313 0.00502189,0.00602627 0.00803503,0.0100438 0.00301313,0 0.00602627,0 0.0100438,0 0.00602627,-0.00703065 0.0130569,-0.0150657 0.0200876,-0.0231007 0.0341489,0 0.0341489,0 0.045197,0.00301313 0.00200876,0.00301313 0.00401751,0.00602627 0.00703065,0.0100438 0.00100438,0.00703065 0.00200876,0.0140613 0.00301313,0.0210919 -0.00100438,0.0472058 -0.00200876,0.0944116 -0.00301313,0.142622 -0.00602627,0 -0.0120525,0.00100438 -0.0180788,0.00200876z"/>
   <path id="_124995336" class="fil1" d="M0.531316 2.43562c0.00100438,-0.0170744 0.00100438,-0.0170744 0.0110482,-0.0572496 0.00200876,-0.00301313 0.00502189,-0.00703065 0.00803503,-0.0110482 0.00200876,0 0.00502189,0 0.00803503,0 0.00401751,0.00602627 0.00803503,0.0120525 0.0120525,0.0180788 0.00502189,0.00301313 0.0100438,0.00602627 0.0150657,0.0090394 0.00100438,0.00401751 0.00200876,0.0090394 0.00301313,0.0140613 -0.00200876,0 -0.00401751,0 -0.00703065,0 0,0.00200876 0,0.00401751 0,0.00703065 -0.0401751,0.0180788 -0.0401751,0.0180788 -0.0502189,0.0200876z"/>
   <path id="_124996784" class="fil1" d="M0.62171 2.42256c-0.00200876,-0.00100438 -0.00401751,-0.00200876 -0.00703065,-0.00401751 0,-0.00301313 0.00100438,-0.00703065 0.00200876,-0.0110482 0.00301313,-0.00200876 0.00602627,-0.00401751 0.0090394,-0.00602627 0.00100438,-0.00301313 0.00200876,-0.00703065 0.00401751,-0.0110482 0.00703065,-0.00301313 0.0140613,-0.00703065 0.0220963,-0.0110482 0,0.00301313 0,0.00602627 0.00100438,0.0100438 -0.00301313,0.00100438 -0.00602627,0.00200876 -0.0090394,0.00401751 0.00200876,0.00301313 0.00401751,0.00703065 0.00602627,0.0110482 -0.00100438,0.00301313 -0.00200876,0.00602627 -0.00401751,0.0090394 -0.00803503,0.00301313 -0.0160701,0.00602627 -0.0241051,0.0090394z"/>
   <path id="_124998512" class="fil1" d="M0.936081 2.39846c0.00100438,-0.00301313 0.00301313,-0.00703065 0.00502189,-0.0110482 0.0401751,-0.0110482 0.0803503,-0.0220963 0.12153,-0.0341489 0.00803503,0 0.0160701,0 0.0241051,-0.00100438 -0.00301313,0.00703065 -0.00602627,0.0140613 -0.0090394,0.0210919 -0.0472058,0.00803503 -0.0944116,0.0160701 -0.141617,0.0251095z"/>
   <path id="_124998368" class="fil1" d="M0.591579 2.34221c-0.00401751,-0.00502189 -0.00803503,-0.0110482 -0.0120525,-0.0170744 0,-0.0140613 0,-0.0140613 0.00401751,-0.0251095 0.00200876,-0.00200876 0.00401751,-0.00401751 0.00602627,-0.00703065 0.0110482,-0.00301313 0.0110482,-0.00301313 0.0301313,-0.00301313 0.00401751,0.00703065 0.0090394,0.0140613 0.0140613,0.0220963 0,0.00401751 0,0.0090394 -0.00100438,0.0140613 -0.00803503,0.00200876 -0.0170744,0.00401751 -0.0261138,0.00703065 -0.00502189,0.00301313 -0.0100438,0.00602627 -0.0150657,0.0090394z"/>
   <path id="_124999880" class="fil1" d="M0.514242 2.33819c0.00100438,-0.0110482 0.00301313,-0.0220963 0.00502189,-0.0331445 0.00602627,-0.0110482 0.0120525,-0.0231007 0.0180788,-0.0351532 0.0130569,-0.0090394 0.0271182,-0.0180788 0.0411795,-0.0271182 0.0130569,0 0.0261138,0 0.0401751,0 0.0100438,0.00703065 0.0200876,0.0140613 0.0311357,0.0210919 0.00803503,0.0100438 0.0160701,0.0210919 0.0251095,0.0321401 0.00100438,0.0100438 0.00200876,0.0210919 0.00401751,0.0321401 -0.00200876,0 -0.00401751,0 -0.00703065,0 -0.00100438,-0.00602627 -0.00200876,-0.0120525 -0.00401751,-0.0180788 -0.00301313,-0.00602627 -0.00703065,-0.0120525 -0.0110482,-0.0180788 -0.00703065,-0.00703065 -0.0140613,-0.0140613 -0.0210919,-0.0210919 -0.00502189,-0.00100438 -0.0110482,-0.00301313 -0.0170744,-0.00502189 -0.0120525,0 -0.0241051,0 -0.037162,0 -0.00703065,0.00200876 -0.0140613,0.00502189 -0.0220963,0.00803503 -0.00602627,0.00703065 -0.00602627,0.00703065 -0.00803503,0.0140613 -0.00200876,0 -0.00401751,0 -0.00703065,0 -0.0100438,0.0160701 -0.0200876,0.0331445 -0.0301313,0.0502189z"/>
   <path id="_125000424" class="fil1" d="M0.69503 2.27793c-0.00200876,-0.00100438 -0.00502189,-0.00301313 -0.00803503,-0.00502189 -0.00502189,-0.00803503 -0.0110482,-0.0160701 -0.0170744,-0.0251095 -0.0361576,-0.0301313 -0.0361576,-0.0301313 -0.0401751,-0.0361576 0,-0.0251095 0.00301313,-0.0381664 0.00703065,-0.0984291 0.00200876,-0.00301313 0.00401751,-0.00703065 0.00602627,-0.0110482 0.0180788,0 0.0361576,0 0.0542364,0 0.00200876,0.00200876 0.00401751,0.00502189 0.00602627,0.00803503 0.00401751,0.0331445 0.00401751,0.0331445 0.00401751,0.117512 -0.00100438,0.0160701 -0.00200876,0.0321401 -0.00401751,0.0482102 -0.00200876,0 -0.00502189,0.00100438 -0.00803503,0.00200876z"/>
   <path id="_125001384" class="fil1" d="M0.508215 2.25182c-0.00200876,-0.00301313 -0.00401751,-0.00602627 -0.00602627,-0.0100438 0.00401751,-0.130569 0.00401751,-0.130569 0.00703065,-0.149652 0.00401751,-0.00301313 0.00401751,-0.00301313 0.0301313,-0.00301313 0.00401751,0.00200876 0.00803503,0.00401751 0.0120525,0.00703065 0.00100438,0.00502189 0.00301313,0.0110482 0.00502189,0.0170744 0.00100438,0.0231007 0.00200876,0.0462014 0.00301313,0.0703065 0.00200876,0.00602627 0.00502189,0.0120525 0.00803503,0.0180788 0,0.00401751 -0.00100438,0.0090394 -0.00200876,0.0140613 -0.0140613,0.0110482 -0.0281226,0.0220963 -0.0431883,0.0331445 -0.00401751,0.00100438 -0.0090394,0.00200876 -0.0140613,0.00301313z"/>
   <path id="_125003520" class="fil1" d="M0.591579 2.18151c-0.00100438,-0.00502189 -0.00301313,-0.0110482 -0.00502189,-0.0170744 0,-0.0441926 0,-0.0441926 0.00301313,-0.0622715 0.00401751,0 0.00803503,0 0.0130569,0 0.00100438,0.00401751 0.00200876,0.0090394 0.00401751,0.0140613 0,0.0210919 -0.00100438,0.0431883 -0.00200876,0.0652846 -0.00401751,0 -0.00803503,0 -0.0130569,0z"/>
   <path id="_125004896" class="fil1" d="M0.644811 2.05094c-0.0110482,-0.0120525 -0.0231007,-0.0241051 -0.0351532,-0.0361576 0,-0.00602627 0,-0.0120525 0,-0.0190832 0.00100438,0 0.00301313,0 0.00502189,0 0.0140613,0.0160701 0.0281226,0.0321401 0.0431883,0.0492145 -0.00200876,0.00301313 -0.00200876,0.00301313 -0.0130569,0.00602627z"/>
   <path id="_125004752" class="fil1" d="M0.561447 2.03085c-0.00401751,-0.00200876 -0.00803503,-0.00401751 -0.0130569,-0.00602627 -0.00602627,0 -0.0130569,0 -0.0200876,-0.00100438 0,-0.00301313 0,-0.00602627 0,-0.0100438 -0.0170744,-0.00200876 -0.0170744,-0.00200876 -0.0261138,-0.00703065 0.0100438,-0.0331445 0.0100438,-0.0331445 0.0090394,-0.0411795 -0.00301313,0 -0.00602627,-0.00100438 -0.0100438,-0.00200876 0.00100438,-0.0140613 0.00200876,-0.0281226 0.00301313,-0.0431883 0.00401751,0 0.00803503,0.00100438 0.0120525,0.00200876 0.00200876,0.00803503 0.00502189,0.0160701 0.00803503,0.0241051 0.00301313,0.00200876 0.00703065,0.00401751 0.0110482,0.00602627 0.00100438,0.00602627 0.00301313,0.0120525 0.00502189,0.0190832 0.0261138,0.0251095 0.0261138,0.0251095 0.0331445,0.0361576 0.00200876,0.00100438 0.00502189,0.00200876 0.00803503,0.00301313 0.00502189,0.0140613 0.00502189,0.0140613 0.00401751,0.0170744 -0.00803503,0.00100438 -0.0160701,0.00200876 -0.0241051,0.00301313z"/>
   <path id="_125008008" class="fil1" d="M0.661885 2.02382c-0.00301313,-0.00502189 -0.00301313,-0.00502189 -0.0150657,-0.0100438 -0.0110482,-0.0170744 -0.0180788,-0.0231007 -0.0200876,-0.0301313 0.0110482,-0.0090394 0.0110482,-0.0090394 0.0220963,-0.0120525 0.00502189,0.00100438 0.00502189,0.00100438 0.0110482,0.0110482 0.00301313,0.0170744 0.00301313,0.0170744 0.00200876,0.0411795z"/>
   <path id="_125007864" class="fil1" d="M0.277208 2.01077c-0.00703065,-0.00200876 -0.0140613,-0.00401751 -0.0220963,-0.00602627 -0.0391708,-0.00401751 -0.0783415,-0.00803503 -0.118517,-0.0130569 -0.0140613,-0.00703065 -0.0140613,-0.00703065 -0.0301313,-0.0110482 0,-0.00502189 0.00100438,-0.0100438 0.00200876,-0.0150657 0.0110482,0 0.0220963,0 0.0341489,-0.00100438 0.0381664,0.0100438 0.0763327,0.0200876 0.114499,0.0301313 0.0301313,0.00401751 0.0301313,0.00401751 0.0431883,0.0090394 0,0.00200876 0,0.00401751 0,0.00703065 -0.00703065,0 -0.0150657,0 -0.0231007,0z"/>
   <path id="_125008984" class="fil1" d="M0.601623 1.96356c-0.00602627,-0.00502189 -0.0120525,-0.0100438 -0.0180788,-0.0150657 -0.00200876,-0.00602627 -0.00401751,-0.0120525 -0.00703065,-0.0180788 0,-0.00703065 0,-0.0140613 0,-0.0210919 0.00200876,-0.00703065 0.00401751,-0.0140613 0.00703065,-0.0210919 0.00602627,-0.00401751 0.0120525,-0.0090394 0.0180788,-0.0140613 0.00602627,0.00100438 0.0120525,0.00200876 0.0180788,0.00401751 0.00401751,0.00502189 0.00803503,0.0110482 0.0130569,0.0170744 0,0.0140613 0,0.0281226 0,0.0431883 -0.00301313,0.00401751 -0.00602627,0.0090394 -0.0090394,0.0140613 -0.00703065,0.00301313 -0.0140613,0.00703065 -0.0220963,0.0110482z"/>
   <path id="_125011160" class="fil1" d="M0.67896 1.89627c-0.00502189,-0.00803503 -0.0110482,-0.0160701 -0.0170744,-0.0251095 -0.0090394,-0.00602627 -0.0180788,-0.0130569 -0.0271182,-0.0200876 -0.0140613,-0.00100438 -0.0281226,-0.00200876 -0.0431883,-0.00301313 -0.00703065,0.00200876 -0.0150657,0.00502189 -0.0231007,0.00803503 0.00100438,-0.00803503 0.00100438,-0.00803503 0.00502189,-0.0120525 0.00803503,-0.00301313 0.0160701,-0.00602627 0.0241051,-0.0100438 0.00803503,0 0.0160701,0 0.0241051,0 0.0251095,0.00703065 0.0251095,0.00703065 0.0381664,0.0140613 0.00703065,0.0110482 0.0150657,0.0220963 0.0231007,0.0341489 0,0.00401751 0.00100438,0.0090394 0.00200876,0.0140613 -0.00200876,0 -0.00401751,0 -0.00602627,0z"/>
   <path id="_125012456" class="fil1" d="M0.504198 1.87015c-0.00200876,-0.100438 -0.00200876,-0.100438 0,-0.146639 0.00200876,-0.00401751 0.00401751,-0.0090394 0.00703065,-0.0140613 0.0110482,-0.00401751 0.0220963,-0.00803503 0.0331445,-0.0120525 0.00502189,0 0.0100438,0 0.0150657,0.00100438 0.00200876,0.00200876 0.00401751,0.00401751 0.00602627,0.00602627 0,0.0210919 0,0.0431883 0.00100438,0.0652846 0.00301313,0.0120525 0.00602627,0.0241051 0.0100438,0.0361576 -0.00502189,0.00703065 -0.00502189,0.00703065 -0.0381664,0.0301313 -0.00301313,0.00602627 -0.00703065,0.0120525 -0.0110482,0.0180788 -0.00703065,0.00502189 -0.0150657,0.0100438 -0.0231007,0.0160701z"/>
   <path id="_125012832" class="fil1" d="M0.692017 1.84605c-0.0170744,-0.0140613 -0.0341489,-0.0281226 -0.0522277,-0.0431883 0.00100438,-0.0421839 0.00200876,-0.0853722 0.00401751,-0.12856 0.00602627,-0.00703065 0.00602627,-0.00703065 0.0170744,-0.0110482 0.0140613,0 0.0140613,0 0.029127,0.00401751 0.0100438,0.00703065 0.0100438,0.00703065 0.0130569,0.0140613 0.00100438,0.0110482 0.00200876,0.0220963 0.00401751,0.0331445 0,0.0421839 0,0.0843678 -0.00100438,0.126552 -0.00401751,0.00100438 -0.0090394,0.00301313 -0.0140613,0.00502189z"/>
   <path id="_125012936" class="fil1" d="M0.598609 1.76971c-0.00200876,-0.00803503 -0.00401751,-0.0160701 -0.00602627,-0.0241051 0,-0.0120525 0,-0.0241051 0,-0.037162 0.00200876,-0.00703065 0.00401751,-0.0150657 0.00602627,-0.0231007 0.00401751,0 0.00803503,0 0.0130569,0 -0.00100438,0.0281226 -0.00200876,0.0562452 -0.00301313,0.0843678 -0.00301313,0 -0.00602627,0 -0.0100438,0z"/>
   <path id="_123702208" class="fil1" d="M0.54136 1.63513c0.00100438,-0.00401751 0.00200876,-0.00803503 0.00301313,-0.0120525 0.0140613,-0.00703065 0.0140613,-0.00703065 0.045197,-0.029127 0.00803503,-0.00100438 0.0160701,-0.00200876 0.0251095,-0.00401751 0.00401751,-0.00200876 0.00803503,-0.00401751 0.0130569,-0.00703065 0.00401751,0 0.0090394,0 0.0140613,-0.00100438 -0.00100438,0.00200876 -0.00301313,0.00502189 -0.00502189,0.00803503 -0.00602627,0.00200876 -0.0120525,0.00401751 -0.0190832,0.00703065 -0.00401751,0.00401751 -0.0090394,0.00803503 -0.0140613,0.0130569 -0.0100438,0.00200876 -0.0210919,0.00401751 -0.0321401,0.00703065 -0.00301313,0.00401751 -0.00602627,0.00803503 -0.0090394,0.0130569 -0.00703065,0.00100438 -0.0140613,0.00301313 -0.0210919,0.00502189z"/>
   <path id="_123700160" class="fil1" d="M0.54136 1.60901c0.00100438,-0.0140613 0.00100438,-0.0140613 0.00703065,-0.0301313 0.0130569,0.00100438 0.0130569,0.00100438 0.0241051,0.00602627 -0.00100438,0.00200876 -0.00200876,0.00401751 -0.00301313,0.00602627 -0.0090394,0.00602627 -0.0180788,0.0120525 -0.0281226,0.0180788z"/>
   <path id="_123701000" class="fil1" d="M0.684986 1.5819c0,-0.00502189 0,-0.0100438 -0.00100438,-0.0150657 0.00301313,-0.00301313 0.00602627,-0.00703065 0.0090394,-0.0110482 0.00301313,0.00200876 0.00602627,0.00502189 0.0100438,0.00803503 0,0.00200876 0,0.00401751 -0.00100438,0.00602627 -0.00200876,-0.00100438 -0.00502189,-0.00301313 -0.00803503,-0.00502189 -0.00100438,0.00502189 -0.00200876,0.0100438 -0.00401751,0.0150657 -0.00100438,0 -0.00301313,0.00100438 -0.00502189,0.00200876z"/>
   <path id="_124539520" class="fil1" d="M0.986299 1.57185c0,-0.00200876 0,-0.00401751 0,-0.00703065 0.0251095,-0.00602627 0.0512233,-0.0130569 0.0773371,-0.0200876 0.00100438,0.00502189 0.00200876,0.0110482 0.00301313,0.0170744 -0.0100438,0.00200876 -0.0200876,0.00502189 -0.0301313,0.00803503 -0.0160701,0 -0.0331445,0.00100438 -0.0502189,0.00200876z"/>
   <path id="_123701560" class="fil1" d="M0.594592 1.56884c-0.0150657,-0.0130569 -0.0150657,-0.0130569 -0.0210919,-0.0231007 0,-0.0120525 0,-0.0251095 -0.00100438,-0.0381664 0.00100438,-0.00301313 0.00200876,-0.00703065 0.00401751,-0.0110482 0.00703065,-0.00502189 0.0140613,-0.0110482 0.0210919,-0.0170744 0.00502189,0 0.0100438,0 0.0160701,0 0.00502189,0.00602627 0.0110482,0.0120525 0.0170744,0.0190832 0.00100438,0.0110482 0.00200876,0.0231007 0.00301313,0.0351532 -0.00301313,0.00803503 -0.00703065,0.0170744 -0.0110482,0.0261138 -0.0140613,0.00703065 -0.0140613,0.00703065 -0.0281226,0.0090394z"/>
   <path id="_124542896" class="fil1" d="M0.671929 1.54172c0,-0.0130569 0,-0.0261138 0.00100438,-0.0391708 -0.00803503,-0.0110482 -0.0160701,-0.0220963 -0.0251095,-0.0331445 -0.0100438,-0.00502189 -0.0200876,-0.0110482 -0.0301313,-0.0170744 -0.029127,0 -0.029127,0 -0.0472058,0.00401751 -0.00803503,0.00602627 -0.0160701,0.0120525 -0.0241051,0.0180788 -0.00502189,0.00602627 -0.0100438,0.0120525 -0.0160701,0.0190832 -0.00100438,0 -0.00200876,-0.00100438 -0.00401751,-0.00200876 0,-0.00602627 0.00100438,-0.0130569 0.00200876,-0.0200876 0.00200876,-0.00401751 0.00502189,-0.00803503 0.00803503,-0.0120525 0.0231007,-0.0150657 0.0311357,-0.0231007 0.0462014,-0.0301313 0.0120525,0 0.0241051,0 0.0361576,0 0.0180788,0.00803503 0.0180788,0.00803503 0.0311357,0.0170744 0.00401751,0.00803503 0.00803503,0.0170744 0.0120525,0.0261138 0.00401751,-0.00100438 0.00401751,-0.00100438 0.0090394,-0.0100438 0.00502189,0.00703065 0.0100438,0.0140613 0.0160701,0.0210919 0.00100438,0.00502189 0.00200876,0.0100438 0.00301313,0.0150657 0.00200876,0.00301313 0.00401751,0.00602627 0.00703065,0.0090394 0.00100438,0.0090394 0.00200876,0.0180788 0.00301313,0.0281226 -0.0090394,0.00200876 -0.0180788,0.00401751 -0.0281226,0.00602627z"/>
   <path id="_124966280" class="fil1" d="M0.684986 1.45133c-0.00502189,-0.00703065 -0.0090394,-0.0200876 -0.0130569,-0.0251095 -0.0120525,-0.00401751 -0.0120525,-0.00401751 -0.0421839,-0.0241051 0,-0.0190832 0,-0.0190832 0.00301313,-0.0210919 0.00100438,-0.00401751 0.00200876,-0.0090394 0.00401751,-0.0140613 0.00100438,-0.0281226 0.00200876,-0.0562452 0.00301313,-0.0843678 0.00401751,-0.00100438 0.0090394,-0.00200876 0.0140613,-0.00401751 0.0110482,0.00200876 0.0220963,0.00401751 0.0331445,0.00703065 0.0090394,0.00703065 0.0090394,0.00703065 0.0130569,0.0140613 0,0.0703065 0,0.0703065 0.00301313,0.12856 -0.00100438,0.00602627 -0.00200876,0.0120525 -0.00301313,0.0180788 -0.00502189,0.00100438 -0.0100438,0.00301313 -0.0150657,0.00502189z"/>
   <path id="_124967128" class="fil1" d="M0.518259 1.43124c-0.00200876,-0.00703065 -0.00200876,-0.00703065 -0.00200876,-0.0913984 0.00200876,-0.0210919 0.00401751,-0.0421839 0.00703065,-0.0642802 0.00200876,-0.00200876 0.00401751,-0.00401751 0.00602627,-0.00703065 0.00803503,0 0.0170744,0 0.0261138,0 0.00401751,0.00803503 0.00401751,0.00803503 0.00703065,0.0281226 0,0.0231007 0,0.0462014 0,0.0693021 0.00200876,0.00502189 0.00401751,0.0100438 0.00703065,0.0160701 0,0.00502189 0,0.0110482 0,0.0170744 -0.0120525,0.0100438 -0.0251095,0.0200876 -0.0381664,0.0301313 -0.00401751,0 -0.00803503,0.00100438 -0.0130569,0.00200876z"/>
   <path id="_124966784" class="fil1" d="M0.598609 1.37399c-0.00301313,-0.00301313 -0.00602627,-0.00703065 -0.0090394,-0.0110482 0.00100438,-0.0281226 0.00200876,-0.0562452 0.00401751,-0.0843678 0.00401751,-0.00301313 0.00401751,-0.00301313 0.0120525,-0.00301313 0.00100438,0.00502189 0.00200876,0.0110482 0.00401751,0.0170744 0,0.0482102 0,0.0482102 -0.00401751,0.0763327 -0.00200876,0.00100438 -0.00401751,0.00301313 -0.00703065,0.00502189z"/>
   <path id="_124969032" class="fil1" d="M0.654855 1.23338c-0.00401751,-0.00200876 -0.00803503,-0.00502189 -0.0130569,-0.00803503 -0.0100438,-0.0110482 -0.0210919,-0.0220963 -0.0321401,-0.0341489 0,-0.00703065 0,-0.0140613 -0.00100438,-0.0210919 0.00301313,0 0.00602627,0.00100438 0.0100438,0.00200876 0.00301313,0.00602627 0.00602627,0.0120525 0.0090394,0.0190832 0.0311357,0.0241051 0.0311357,0.0241051 0.0391708,0.0351532 0,0.00200876 0.00100438,0.00401751 0.00200876,0.00703065 -0.00401751,0 -0.0090394,0 -0.0140613,0z"/>
   <path id="_124969736" class="fil1" d="M0.574504 1.21731c-0.00200876,-0.00200876 -0.00401751,-0.00401751 -0.00703065,-0.00602627 -0.0160701,-0.00200876 -0.0231007,-0.00602627 -0.0512233,-0.0100438 0,-0.00803503 0,-0.0160701 0,-0.0251095 0.00401751,-0.0241051 0.00803503,-0.0482102 0.0120525,-0.0733196 0.00401751,0 0.0090394,0.00100438 0.0140613,0.00200876 0.00301313,0.00703065 0.00602627,0.0140613 0.0100438,0.0210919 0.00100438,0.0110482 0.00200876,0.0220963 0.00401751,0.0341489 0.00200876,0.00401751 0.00401751,0.00803503 0.00602627,0.0120525 0.00401751,0.00200876 0.0090394,0.00502189 0.0140613,0.00803503 0.00502189,0.0090394 0.0110482,0.0180788 0.0170744,0.0271182 -0.00602627,0.00301313 -0.0120525,0.00602627 -0.0190832,0.0100438z"/>
   <path id="_124970880" class="fil1" d="M0.240046 1.1932c-0.0200876,-0.00502189 -0.107468,-0.0180788 -0.1376,-0.0251095 -0.00301313,-0.00200876 -0.00703065,-0.00502189 -0.0110482,-0.00803503 -0.00100438,-0.00301313 -0.00200876,-0.00602627 -0.00401751,-0.0090394 0.00401751,-0.00301313 0.00803503,-0.00602627 0.0120525,-0.0100438 0.0130569,0 0.0130569,0 0.100438,0.0200876 0.029127,0.00803503 0.0582539,0.0160701 0.0873809,0.0251095 0.00100438,0.00200876 0.00200876,0.00401751 0.00301313,0.00703065 -0.0160701,0 -0.0331445,0 -0.0502189,0z"/>
   <path id="_125120640" class="fil1" d="M0.668916 1.1932c-0.0150657,-0.0150657 -0.0150657,-0.0150657 -0.0190832,-0.0231007 0,-0.00301313 0,-0.00602627 -0.00100438,-0.0100438 0.00502189,0 0.0110482,0.00100438 0.0170744,0.00200876 0.00200876,0.00301313 0.00401751,0.00602627 0.00703065,0.0090394 0,0.00703065 0.00100438,0.0140613 0.00200876,0.0220963 -0.00200876,0 -0.00401751,0 -0.00602627,0z"/>
   <path id="_125122040" class="fil1" d="M0.684986 1.1701c-0.00100438,-0.00301313 -0.00301313,-0.00602627 -0.00502189,-0.0100438 -0.00703065,-0.0512233 -0.0100438,-0.0552408 -0.0130569,-0.090394 -0.00301313,-0.00602627 -0.00602627,-0.0120525 -0.0090394,-0.0180788 -0.00301313,-0.00301313 -0.00703065,-0.00602627 -0.0110482,-0.0090394 -0.00100438,-0.00401751 -0.00200876,-0.00803503 -0.00301313,-0.0120525 -0.0100438,-0.00301313 -0.0100438,-0.00301313 -0.0321401,-0.00301313 -0.0090394,0.00301313 -0.0180788,0.00602627 -0.0271182,0.0090394 0,-0.00502189 0.00100438,-0.0100438 0.00200876,-0.0150657 0.0170744,-0.00401751 0.0170744,-0.00401751 0.053232,-0.00401751 0.0120525,0.00401751 0.0241051,0.0090394 0.0361576,0.0140613 0.00401751,0.0140613 0.00703065,0.0160701 0.0110482,0.0301313 0.00301313,0.0351532 0.00602627,0.0391708 0.0130569,0.090394 0,0.00502189 0,0.0100438 0,0.0160701 -0.00502189,0 -0.0100438,0.00100438 -0.0150657,0.00200876z"/>
   <path id="_125122400" class="fil1" d="M0.608653 1.14298c-0.00301313,-0.00301313 -0.00602627,-0.00602627 -0.0090394,-0.0090394 -0.00301313,-0.0120525 -0.00602627,-0.0241051 -0.0100438,-0.037162 0.00200876,-0.0090394 0.00401751,-0.0180788 0.00602627,-0.0271182 0.00502189,-0.00401751 0.0100438,-0.00803503 0.0160701,-0.0130569 0.00703065,0 0.0140613,0 0.0210919,0.00100438 0.00502189,0.00803503 0.0110482,0.0160701 0.0170744,0.0241051 0,0.0120525 0,0.0241051 0,0.0361576 -0.00200876,0.00401751 -0.00401751,0.00803503 -0.00703065,0.0130569 -0.00401751,0.00301313 -0.00803503,0.00602627 -0.0130569,0.0090394 -0.00703065,0.00100438 -0.0140613,0.00200876 -0.0210919,0.00301313z"/>
   <path id="_125124568" class="fil1" d="M0.538347 1.04656c-0.00200876,-0.0100438 -0.00401751,-0.0200876 -0.00602627,-0.0301313 0,-0.0401751 0,-0.0803503 0,-0.12153 0.00200876,-0.0110482 0.00401751,-0.0231007 0.00703065,-0.0351532 0.00502189,-0.00703065 0.00502189,-0.00703065 0.0120525,-0.0100438 0.0110482,0.00100438 0.0110482,0.00100438 0.0150657,0.00502189 0.00200876,0.0361576 0.00401751,0.0733196 0.00602627,0.110482 0.00100438,0.00301313 0.00200876,0.00602627 0.00401751,0.0100438 0,0.00602627 0,0.0120525 -0.00100438,0.0180788 -0.00602627,0.00602627 -0.0120525,0.0120525 -0.0180788,0.0180788 -0.00200876,0.0090394 -0.00502189,0.0190832 -0.00803503,0.029127 -0.00301313,0.00200876 -0.00703065,0.00401751 -0.0110482,0.00602627z"/>
   <path id="_125129480" class="fil1" d="M0.668916 1.00237c-0.0090394,-0.00502189 -0.0190832,-0.0100438 -0.029127,-0.0150657 0,-0.00703065 0,-0.0140613 -0.00100438,-0.0210919 0.00100438,-0.00200876 0.00200876,-0.00401751 0.00401751,-0.00703065 0,-0.0311357 0,-0.0622715 0,-0.0944116 0.00401751,-0.0210919 0.00401751,-0.0210919 0.00803503,-0.0251095 0.00803503,0 0.0160701,0 0.0251095,0.00100438 0.00401751,0.0271182 0.00803503,0.0552408 0.0120525,0.0833634 -0.00100438,0.0231007 -0.00301313,0.0462014 -0.00502189,0.0703065 -0.00100438,0.00200876 -0.00200876,0.00401751 -0.00401751,0.00602627 -0.00301313,0 -0.00602627,0.00100438 -0.0100438,0.00200876z"/>
   <path id="_125130744" class="fil1" d="M0.601623 0.946124c-0.00100438,-0.0120525 -0.00301313,-0.0241051 -0.00502189,-0.037162 0,-0.0170744 0,-0.0351532 0,-0.053232 0.00200876,-0.00301313 0.00401751,-0.00703065 0.00703065,-0.0110482 0.00200876,0 0.00502189,0 0.00803503,0 0.00100438,0.0090394 0.00301313,0.0180788 0.00502189,0.0271182 0,0.0140613 0,0.029127 0,0.0441926 -0.00200876,0.0090394 -0.00502189,0.0180788 -0.00803503,0.0271182 -0.00200876,0.00100438 -0.00401751,0.00200876 -0.00703065,0.00301313z"/>
   <path id="_125131968" class="fil1" d="M0.494154 0.821581c0.00502189,-0.0502189 0.00502189,-0.0502189 0.0100438,-0.0733196 0.00200876,0 0.00401751,0 0.00703065,0 -0.00502189,0.0301313 -0.00502189,0.053232 -0.0100438,0.0703065 -0.00200876,0.00100438 -0.00401751,0.00200876 -0.00703065,0.00301313z"/>
   <path id="_125130848" class="fil1" d="M0.631754 0.781406c-0.00100438,-0.00100438 -0.00200876,-0.00301313 -0.00301313,-0.00502189 0.00502189,-0.00602627 0.0100438,-0.0130569 0.0150657,-0.0200876 0.00401751,-0.00200876 0.00803503,-0.00401751 0.0120525,-0.00602627 0.00100438,-0.00401751 0.00200876,-0.0090394 0.00401751,-0.0140613 0.00301313,0 0.00703065,-0.00100438 0.0110482,-0.00200876 0,-0.00301313 0,-0.00602627 0,-0.0090394 -0.00301313,0 -0.00602627,0 -0.0100438,0.00100438 0,-0.00301313 -0.00100438,-0.00703065 -0.00200876,-0.0110482 0.00301313,-0.00100438 0.00703065,-0.00301313 0.0110482,-0.00502189 0,-0.0472058 0,-0.0472058 -0.00301313,-0.0502189 -0.00200876,-0.0100438 -0.00401751,-0.0210919 -0.00703065,-0.0321401 -0.00401751,-0.00401751 -0.00803503,-0.00803503 -0.0120525,-0.0120525 -0.00602627,-0.00100438 -0.0120525,-0.00200876 -0.0180788,-0.00401751 -0.00100438,-0.00200876 -0.00301313,-0.00401751 -0.00502189,-0.00703065 -0.0100438,0.00100438 -0.0200876,0.00200876 -0.0301313,0.00401751 -0.00703065,0.00301313 -0.0140613,0.00602627 -0.0220963,0.0100438 -0.00100438,0.00301313 -0.00200876,0.00602627 -0.00301313,0.0100438 -0.00301313,0.00200876 -0.00602627,0.00401751 -0.0100438,0.00602627 -0.00200876,0.00401751 -0.00401751,0.00803503 -0.00602627,0.0130569 -0.00401751,0.0331445 -0.00401751,0.0331445 -0.00401751,0.0713109 0.00502189,0 0.0100438,0 0.0160701,0.00100438 0.00200876,0.00200876 0.00401751,0.00401751 0.00703065,0.00602627 0,0.00301313 0,0.00602627 0,0.0100438 -0.00502189,0.00301313 -0.0110482,0.00602627 -0.0170744,0.0090394 -0.00200876,0.00803503 -0.00401751,0.0160701 -0.00602627,0.0241051 -0.00502189,0 -0.0100438,0 -0.0160701,0 -0.00100438,-0.00200876 -0.00200876,-0.00502189 -0.00401751,-0.00803503 -0.00100438,-0.0391708 -0.00200876,-0.0783415 -0.00301313,-0.117512 0.00301313,-0.0251095 0.00301313,-0.0251095 0.00703065,-0.0311357 0.00401751,-0.00100438 0.0090394,-0.00200876 0.0140613,-0.00401751 0.0210919,-0.0170744 0.0210919,-0.0170744 0.0351532,-0.0231007 0.0120525,0 0.0241051,0 0.0361576,0 0.00502189,0.00200876 0.0100438,0.00401751 0.0150657,0.00602627 0.0090394,0 0.0180788,0.00100438 0.0271182,0.00200876 0,-0.00100438 0,-0.00301313 0,-0.00502189 -0.00301313,-0.00100438 -0.00703065,-0.00200876 -0.0110482,-0.00301313 0,-0.00200876 0,-0.00502189 -0.00100438,-0.00803503 0.0180788,0.00602627 0.0180788,0.00602627 0.0241051,0.0110482 -0.00301313,0.00803503 -0.00301313,0.00803503 -0.00301313,0.029127 0.00301313,0.00200876 0.00703065,0.0160701 0.0180788,0.0301313 0.00502189,0.0361576 0.00502189,0.0361576 0.00502189,0.0723152 0.00401751,0.0100438 0.00401751,0.0100438 0.00602627,0.0411795 -0.0220963,0.00100438 -0.0220963,0.00100438 -0.0351532,0.00502189 -0.00301313,0.00301313 -0.00703065,0.00602627 -0.0110482,0.0100438 -0.00703065,0.00100438 -0.0140613,0.00301313 -0.0210919,0.00502189z"/>
   <path id="_125133144" class="fil1" d="M0.953155 0.745249c0.00703065,-0.00602627 0.00703065,-0.00602627 0.0391708,-0.0190832 0.0301313,-0.00602627 0.0602627,-0.0130569 0.0913984,-0.0200876 0.00401751,0.00100438 0.0090394,0.00200876 0.0140613,0.00401751 0,0.00301313 0,0.00602627 0,0.0090394 -0.00703065,0.00100438 -0.0140613,0.00200876 -0.0210919,0.00401751 -0.00301313,0.00301313 -0.00703065,0.00602627 -0.0110482,0.0090394 -0.0140613,0.00301313 -0.0281226,0.00703065 -0.0421839,0.0110482 -0.0231007,0 -0.0462014,0.00100438 -0.0703065,0.00200876z"/>
   <path id="_125134064" class="fil1" d="M0.604636 0.71813c-0.0170744,-0.0150657 -0.0170744,-0.0150657 -0.0210919,-0.0220963 0,-0.00703065 0,-0.0140613 -0.00100438,-0.0220963 0.00200876,-0.0090394 0.00401751,-0.0180788 0.00703065,-0.0281226 0.00602627,-0.00301313 0.0120525,-0.00602627 0.0180788,-0.0100438 0.00502189,0 0.0100438,0 0.0160701,0 0.00301313,0.00200876 0.00703065,0.00401751 0.0110482,0.00703065 0.00200876,0.00502189 0.00502189,0.0100438 0.00803503,0.0160701 0,0.0110482 0,0.0220963 0,0.0341489 -0.00703065,0.0170744 -0.00703065,0.0170744 -0.0140613,0.0231007 -0.00803503,0 -0.0160701,0.00100438 -0.0241051,0.00200876z"/>
   <path id="_125133480" class="fil1" d="M0.564461 0.564461c-0.00100438,-0.00200876 -0.00301313,-0.00401751 -0.00502189,-0.00703065 0.00100438,-0.0462014 0.00200876,-0.0934072 0.00301313,-0.140613 0.00100438,-0.00401751 0.00200876,-0.00803503 0.00401751,-0.0130569 0,-0.0130569 0,-0.0271182 0,-0.0411795 0.00200876,-0.00803503 0.00401751,-0.0160701 0.00602627,-0.0241051 0.0140613,-0.160701 0.0140613,-0.160701 0.0271182,-0.271182 0.00401751,-0.0140613 0.00401751,-0.0140613 0.00803503,-0.0170744 0.00200876,0 0.00401751,0 0.00703065,0 0.00301313,0.00502189 0.00301313,0.00502189 0.00200876,0.0311357 0.0130569,0.0632758 0.0130569,0.0632758 0.0200876,0.117512 0,0.00803503 0,0.0170744 0,0.0261138 0.00200876,0.00602627 0.00401751,0.0120525 0.00703065,0.0180788 -0.00100438,0.0140613 -0.00100438,0.0140613 -0.00401751,0.0160701 0.00100438,0.0130569 0.00200876,0.0261138 0.00301313,0.0391708 0.00200876,0.00803503 0.00401751,0.0160701 0.00703065,0.0241051 0,0.0170744 0,0.0341489 0,0.0522277 -0.00301313,0.00200876 -0.00301313,0.00200876 -0.00301313,0.0251095 0.00602627,0.0090394 0.00602627,0.0090394 0.0100438,0.0261138 0.00301313,0.0934072 0.00301313,0.0934072 0.00703065,0.127556 0.00200876,0.00100438 0.00401751,0.00200876 0.00602627,0.00401751 -0.0351532,0.00200876 -0.0703065,0.00401751 -0.10546,0.00703065z"/>
  </g>
 </g>
</svg>
         <g id="Race-24c-ShellEight">
			<use xlink:href="#Race-24c-EightShellIcon" x="0" y="0" width="1.147in" height="4.762in" transform="scale(0.07333333333333333) rotate(90)"/>
		</g>
	
		<g id="Race-24c-MyScale">
			<line x1="0" y1="0" x2="500" y2="0" style="stroke:black; fill:black;"/>

			<line x1="0" y1="0" x2="0" y2="10" style="stroke:black; fill:black;"/>
			<line x1="100" y1="0" x2="100" y2="10" style="stroke:black; fill:black;"/>
			<line x1="200" y1="0" x2="200" y2="10" style="stroke:black; fill:black;"/>
			<line x1="300" y1="0" x2="300" y2="10" style="stroke:black; fill:black;"/>
			<line x1="400" y1="0" x2="400" y2="10" style="stroke:black; fill:black;"/>
			<line x1="500" y1="0" x2="500" y2="10" style="stroke:black; fill:black;"/>

			<line x1="50" y1="0" x2="50" y2="5" style="stroke:black; fill:black;"/>
			<line x1="150" y1="0" x2="150" y2="5" style="stroke:black; fill:black;"/>
			<line x1="250" y1="0" x2="250" y2="5" style="stroke:black; fill:black;"/>
			<line x1="350" y1="0" x2="350" y2="5" style="stroke:black; fill:black;"/>
			<line x1="450" y1="0" x2="450" y2="5" style="stroke:black; fill:black;"/>
		</g>
		<g id="Race-24c-RaceCourse">
			<use xlink:href="#Race-24c-MyScale" transform="rotate(180 250 0) translate(0 -30)"/>
			
		</g>
		<g id="Race-24c-ScaleLabels" style="text-rendering:auto;text-anchor:middle;font-size:12;font-weight:normal">
			<text x="0" y="0" >1700</text>
			<text x="100" y="0" >1760</text>
			<text x="200" y="0" >1820</text>
			<text x="300" y="0" >1880</text>
			<text x="400" y="0" >1940</text>
			<text x="500" y="0" >2000</text>
		</g>
		<g id="Race-24c-LaneLines" style="stroke:black; fill:black;stroke-dasharray:1 5;">
			<line x1="0" y1="20" x2="531" y2="20" />
			<line x1="0" y1="40" x2="531" y2="40" />
			<line x1="0" y1="60" x2="531" y2="60" />
			<line x1="0" y1="80" x2="531" y2="80" />
			<line x1="0" y1="100" x2="531" y2="100" />
			<line x1="0" y1="120" x2="531" y2="120" />
		</g>
		<g id="Race-24c-LaneNumbers" style="text-rendering:auto;text-anchor:end;font-size:12;font-weight:normal">
			<text x="21" y="10">1st</text>
			<text x="21" y="30">2nd</text>
			<text x="21" y="50">3rd</text>
			<text x="21" y="70">4th</text>
			<text x="21" y="90">5th</text>
			<text x="21" y="110">6th</text>
		</g>
		<g id="Race-24c-RacingCrewNames" style="text-rendering:auto;text-anchor:start;font-size:12;font-weight:normal">
			<text x="0" y="10">4 St. Mary&apos;s A</text>
		
			<text x="0" y="30">3 Catholic University</text>
		
			<text x="0" y="50">2 Stockton A</text>
		
			<text x="0" y="70">5 Bryn Mawr B</text>
		
			<text x="0" y="90">6 Stockton B</text>
		
			<text x="0" y="110">1 Wash. College B</text>
		
        </g>
        <g id="Race-24c-RacingCrews">
			<use xlink:href="#Race-24c-ShellEight" transform="translate(500 18)"/>
			<use xlink:href="#Race-24c-ShellEight" transform="translate(360 38)"/>
			<use xlink:href="#Race-24c-ShellEight" transform="translate(289 58)"/>
			<use xlink:href="#Race-24c-ShellEight" transform="translate(232 78)"/>
			<use xlink:href="#Race-24c-ShellEight" transform="translate(218 98)"/>
			<use xlink:href="#Race-24c-ShellEight" transform="translate(64 118)"/>
		</g>
		<g id="Race-24c-RacingCrewResults" style="text-rendering:auto;text-anchor:middle;font-size:12;font-style:italic;font-family:sans-serif;font-weight:normal">
			<text x="461" y="10" style="text-anchor:end">07:37.93</text>
			<text x="321" y="30" style="text-anchor:end">07:58.02</text>
			<text x="250" y="50" style="text-anchor:end">08:08.99</text>
			<text x="193" y="70" style="text-anchor:end">08:17.97</text>
			<text x="179" y="90" style="text-anchor:end">08:20.34</text>
			<text x="74" y="110" style="text-anchor:start">08:46.93</text>
		</g>
		<g id="Race-24c-PlottedCrews">
			<!--
			<rect x="0" y="0" width="100%" height="100%" style="fill:#FFFFFF; stroke:none;"/>
			-->



			<use xlink:href="#Race-24c-RaceCourse" transform="scale(1.0) translate(31 10)"/>
			<use xlink:href="#Race-24c-ScaleLabels" transform="scale(1.0) translate(31 25)"/>
			<use xlink:href="#Race-24c-LaneLines" transform="scale(1.0) translate(0 40)"/>
			<use xlink:href="#Race-24c-RacingCrews" transform="translate(31  28)"/>
			<use xlink:href="#Race-24c-LaneNumbers" transform="translate(0 45)"/>
			<use xlink:href="#Race-24c-RacingCrewNames" transform="translate(541 45)"/>
			<use xlink:href="#Race-24c-RacingCrewResults" transform="translate(31 45)"/>
		</g>
	</defs>

	<use xlink:href="#Race-24c-PlottedCrews" transform="scale(1.2269938650306749) translate(0 0)" />
	<!-- <use xlink:href="#PlottedCrews"/> -->
</svg>